<svg 
 xmlns="http://www.w3.org/2000/svg"
 xmlns:xlink="http://www.w3.org/1999/xlink"
 width="30px" height="25px">
<path fill-rule="evenodd"  fill="rgb(124, 156, 224)"
 d="M24.263,0.005 L10.166,14.103 L5.798,9.697 L0.370,15.099 L10.251,24.995 L29.630,5.383 L24.263,0.005 ZM10.732,17.474 C10.888,17.313 11.044,17.151 11.198,16.990 C11.520,16.656 11.853,16.309 12.183,15.978 C13.635,14.519 15.088,13.060 16.541,11.601 C19.074,9.057 21.690,6.430 24.267,3.838 C24.644,4.222 25.028,4.603 25.401,4.974 C25.522,5.094 25.643,5.213 25.764,5.334 L10.136,21.100 L4.121,15.092 C4.249,14.965 4.376,14.838 4.503,14.711 C4.903,14.312 5.315,13.902 5.721,13.489 C6.661,14.439 7.618,15.393 8.546,16.318 C8.830,16.601 9.115,16.885 9.399,17.169 C9.468,17.237 9.536,17.300 9.616,17.374 C9.655,17.410 9.700,17.451 9.750,17.498 L10.253,17.969 L10.732,17.474 Z"/>
</svg>