<svg 
 xmlns="http://www.w3.org/2000/svg"
 xmlns:xlink="http://www.w3.org/1999/xlink"
 width="57px" height="58px">
<path fill-rule="evenodd"  fill="rgb(211, 210, 210)"
 d="M56.595,28.138 C56.583,28.816 56.030,29.357 55.355,29.357 C55.347,29.357 55.340,29.356 55.332,29.356 C54.646,29.344 54.101,28.778 54.113,28.093 C54.116,27.942 54.118,27.792 54.118,27.640 C54.118,25.171 53.753,22.734 53.035,20.398 C52.834,19.743 53.202,19.048 53.857,18.847 C54.512,18.646 55.206,19.013 55.408,19.669 C56.199,22.242 56.600,24.924 56.600,27.640 C56.600,27.807 56.598,27.972 56.595,28.138 ZM53.664,14.088 C53.422,14.330 53.104,14.452 52.787,14.452 C52.469,14.452 52.152,14.330 51.909,14.088 L50.553,12.732 L49.197,14.088 C48.955,14.330 48.637,14.452 48.320,14.452 C48.002,14.452 47.685,14.330 47.442,14.088 C46.958,13.603 46.958,12.817 47.442,12.333 L48.798,10.977 L47.442,9.620 C46.958,9.136 46.958,8.350 47.442,7.865 C47.927,7.380 48.713,7.380 49.197,7.865 L50.553,9.221 L51.909,7.865 C52.394,7.380 53.180,7.380 53.664,7.865 C54.149,8.350 54.149,9.136 53.664,9.620 L52.308,10.977 L53.664,12.333 C54.149,12.817 54.149,13.603 53.664,14.088 ZM46.336,20.824 C45.717,21.118 44.977,20.854 44.683,20.235 C42.009,14.598 36.253,10.955 30.018,10.955 C21.074,10.955 13.797,18.233 13.797,27.179 C13.797,30.353 14.713,33.427 16.446,36.068 C16.822,36.641 16.663,37.411 16.090,37.787 C15.880,37.924 15.644,37.990 15.410,37.990 C15.006,37.990 14.610,37.793 14.371,37.430 C12.372,34.383 11.315,30.838 11.315,27.179 C11.315,16.864 19.705,8.473 30.018,8.473 C33.626,8.473 37.129,9.503 40.147,11.451 C43.086,13.348 45.430,16.017 46.925,19.171 C47.219,19.790 46.955,20.530 46.336,20.824 ZM42.402,6.673 C38.535,4.289 34.077,3.029 29.510,3.029 C22.699,3.029 16.363,5.750 11.669,10.689 C11.425,10.946 11.097,11.076 10.769,11.076 C10.462,11.076 10.155,10.962 9.915,10.734 C9.418,10.262 9.398,9.476 9.870,8.980 C12.374,6.344 15.325,4.270 18.641,2.816 C22.074,1.310 25.731,0.547 29.510,0.547 C34.537,0.547 39.446,1.935 43.705,4.560 C44.288,4.920 44.470,5.685 44.110,6.268 C43.750,6.852 42.986,7.033 42.402,6.673 ZM8.229,24.874 C7.987,25.116 7.669,25.237 7.352,25.237 C7.034,25.237 6.716,25.116 6.474,24.874 L4.542,22.942 L2.611,24.874 C2.369,25.116 2.051,25.237 1.733,25.237 C1.416,25.237 1.098,25.116 0.856,24.874 C0.371,24.389 0.371,23.603 0.856,23.118 L2.787,21.187 L0.856,19.255 C0.371,18.770 0.371,17.984 0.856,17.500 C1.341,17.015 2.126,17.015 2.611,17.500 L4.542,19.431 L6.474,17.500 C6.959,17.015 7.744,17.015 8.229,17.500 C8.714,17.984 8.714,18.770 8.229,19.255 L6.298,21.187 L8.229,23.118 C8.714,23.603 8.714,24.389 8.229,24.874 ZM4.346,33.706 C5.003,33.515 5.693,33.892 5.885,34.550 C7.712,40.812 12.063,46.189 17.822,49.304 C18.425,49.630 18.649,50.383 18.323,50.986 C18.099,51.401 17.672,51.637 17.230,51.637 C17.031,51.637 16.829,51.589 16.641,51.487 C10.303,48.059 5.514,42.139 3.502,35.246 C3.310,34.588 3.688,33.898 4.346,33.706 ZM20.133,32.681 C20.134,31.541 20.618,31.053 21.749,31.050 C22.720,31.047 23.690,31.048 24.679,31.048 L25.757,31.049 C25.764,30.926 25.772,30.811 25.772,30.700 L25.774,29.351 C25.776,27.852 25.778,26.303 25.770,24.779 C25.760,23.015 26.586,21.661 28.224,20.754 C29.216,20.205 31.195,20.454 31.630,20.721 C33.506,21.758 34.322,23.395 34.112,25.713 C35.632,25.120 37.046,25.410 38.417,26.594 C40.492,25.002 41.659,25.003 44.067,26.590 C44.999,25.733 46.093,25.329 47.320,25.390 L47.345,25.393 C47.407,25.403 48.872,25.655 50.092,27.043 C50.739,27.780 51.053,28.700 51.052,29.855 C51.043,36.268 51.044,42.787 51.045,49.092 C51.045,51.346 51.046,53.600 51.046,55.854 C51.046,56.930 50.523,57.452 49.448,57.452 C46.876,57.453 44.303,57.453 41.730,57.453 C36.934,57.453 32.139,57.452 27.343,57.452 C26.766,57.452 26.321,57.289 26.055,56.981 C25.815,56.701 25.728,56.322 25.798,55.854 C26.138,53.589 25.181,51.746 24.169,49.795 L24.028,49.522 C22.919,47.378 21.835,45.178 20.787,43.049 L20.398,42.262 C20.235,41.930 20.144,41.572 20.142,41.255 C20.126,38.683 20.129,36.068 20.132,33.539 L20.133,32.681 ZM28.481,54.699 L48.336,54.699 L48.337,44.827 C48.337,39.756 48.338,34.685 48.335,29.614 C48.335,28.633 47.859,28.129 46.920,28.116 C45.933,28.099 45.436,28.578 45.404,29.571 C45.376,30.445 44.874,30.944 44.027,30.935 C43.220,30.929 42.723,30.424 42.696,29.585 C42.665,28.600 42.190,28.120 41.245,28.116 C41.241,28.116 41.237,28.116 41.233,28.116 C40.288,28.116 39.794,28.598 39.763,29.551 C39.734,30.431 39.240,30.935 38.408,30.935 C38.408,30.935 38.408,30.935 38.407,30.935 C37.576,30.935 37.083,30.429 37.055,29.548 C37.024,28.598 36.530,28.116 35.584,28.116 C35.580,28.116 35.575,28.116 35.570,28.116 C34.641,28.121 34.154,28.597 34.122,29.531 C34.091,30.438 33.607,30.935 32.758,30.935 C32.748,30.935 32.737,30.935 32.727,30.935 C31.907,30.924 31.417,30.389 31.415,29.505 C31.414,28.927 31.415,28.349 31.415,27.771 C31.416,26.675 31.416,25.543 31.408,24.430 C31.402,23.666 31.010,23.179 30.304,23.058 C29.745,22.962 29.282,23.052 28.966,23.318 C28.650,23.585 28.482,24.026 28.482,24.594 C28.481,31.160 28.481,37.725 28.481,44.290 L28.481,54.699 ZM22.849,40.997 C22.849,41.124 22.931,41.290 22.997,41.423 C23.649,42.741 24.359,44.165 25.231,45.904 C25.397,46.234 25.569,46.568 25.738,46.895 L25.738,33.783 L22.841,33.783 L22.841,35.025 C22.840,37.078 22.840,39.018 22.849,40.997 Z"/>
</svg>