<svg 
 xmlns="http://www.w3.org/2000/svg"
 xmlns:xlink="http://www.w3.org/1999/xlink"
 width="12px" height="11px">
<path fill-rule="evenodd"  fill="rgb(142, 176, 246)"
 d="M1.024,6.281 L8.234,6.281 L5.385,9.030 C5.016,9.387 5.016,9.965 5.388,10.321 C5.757,10.676 6.358,10.676 6.726,10.319 L11.189,6.013 C11.558,5.657 11.558,5.080 11.189,4.724 L6.726,0.418 C6.543,0.239 6.300,0.150 6.057,0.150 C5.814,0.150 5.572,0.239 5.388,0.416 C5.016,0.773 5.016,1.350 5.385,1.707 L8.234,4.456 L1.024,4.456 C0.501,4.456 0.077,4.865 0.077,5.368 C0.077,5.872 0.501,6.281 1.024,6.281 Z"/>
</svg>