<svg 
 xmlns="http://www.w3.org/2000/svg"
 xmlns:xlink="http://www.w3.org/1999/xlink"
 width="265px" height="140px">
<path fill-rule="evenodd"  fill="rgb(124, 156, 224)"
 d="M0.065,139.794 L0.065,136.396 L264.054,136.396 L264.054,139.794 L0.065,139.794 ZM230.937,123.783 C231.073,125.401 230.526,127.043 229.438,128.288 C228.325,129.561 226.751,130.310 225.004,130.398 C224.898,130.403 224.793,130.406 224.689,130.406 C221.482,130.406 218.760,127.934 218.550,124.760 C218.467,123.502 218.238,122.519 217.393,121.810 C216.779,121.296 216.102,121.045 215.322,121.044 C214.281,121.042 213.240,121.043 212.199,121.044 C210.825,121.045 209.451,121.046 208.077,121.041 C205.124,121.031 202.256,119.753 200.210,117.534 C198.195,115.349 197.166,112.441 197.388,109.556 C197.740,104.974 199.333,100.552 201.875,97.104 C207.039,90.098 212.561,86.069 218.287,85.130 C227.900,83.555 236.802,86.778 243.353,94.205 C245.463,96.597 246.659,100.668 247.621,103.939 C247.786,104.503 247.943,105.036 248.097,105.535 C248.118,105.594 248.235,105.734 248.364,105.808 C249.017,106.180 249.692,106.547 250.345,106.902 C251.229,107.381 252.142,107.877 253.027,108.403 C253.440,108.648 254.001,109.053 254.096,109.724 C254.193,110.403 253.762,110.965 253.376,111.378 C251.799,113.067 249.855,114.565 247.434,115.960 C247.201,116.094 246.971,116.332 246.755,116.565 C246.336,117.017 245.926,117.485 245.491,117.980 C245.475,117.999 245.458,118.018 245.441,118.037 L247.829,120.132 C247.869,120.167 247.910,120.201 247.951,120.236 C248.067,120.332 248.198,120.442 248.323,120.576 C248.981,121.284 248.997,122.180 248.366,122.859 C247.843,123.421 247.144,123.566 246.514,123.280 C246.683,123.921 246.476,124.549 245.913,124.972 C245.336,125.405 244.665,125.430 244.090,125.082 C244.186,125.792 243.833,126.433 243.143,126.760 C242.279,127.170 241.402,126.871 240.960,126.016 C240.717,125.547 240.501,125.067 240.291,124.602 C240.198,124.396 240.105,124.190 240.010,123.985 C239.898,123.745 239.788,123.505 239.677,123.265 C239.338,122.531 238.988,121.772 238.628,121.039 C236.088,121.028 233.508,121.037 231.011,121.047 L230.664,121.048 C230.674,121.143 230.684,121.239 230.694,121.334 C230.780,122.135 230.868,122.964 230.937,123.783 ZM249.153,111.061 C249.478,110.798 249.791,110.520 250.137,110.208 L248.812,109.492 L248.706,111.409 C248.856,111.295 249.006,111.179 249.153,111.061 ZM237.072,92.402 C231.965,88.725 224.572,87.039 218.674,88.206 C209.732,89.976 204.612,97.918 201.891,104.269 C201.082,106.156 200.284,108.418 200.492,110.894 C200.815,114.748 204.194,117.901 208.025,117.923 C209.096,117.929 210.187,117.927 211.242,117.925 C211.776,117.924 212.316,117.923 212.860,117.923 C213.684,117.923 214.515,117.925 215.338,117.933 C217.105,117.952 218.623,118.600 219.850,119.860 C221.298,121.348 221.567,123.192 221.643,124.450 C221.734,125.962 222.878,127.111 224.488,127.309 C225.704,127.459 227.311,126.597 227.641,125.222 C227.832,124.425 227.845,123.419 227.678,122.231 C226.872,116.495 221.914,111.987 216.146,111.744 C214.427,111.672 212.668,111.676 210.968,111.680 C210.154,111.682 209.312,111.684 208.482,111.678 C207.245,111.669 206.691,110.904 206.690,110.150 C206.689,109.393 207.240,108.626 208.473,108.619 C210.665,108.607 212.858,108.597 215.050,108.590 C215.074,108.590 215.097,108.590 215.120,108.590 C217.095,108.590 218.771,108.843 220.240,109.362 C224.635,110.916 227.802,113.792 229.656,117.913 C229.871,117.917 230.087,117.920 230.306,117.921 C228.455,116.142 227.373,113.889 227.089,111.206 C227.043,110.772 227.043,110.772 226.689,110.681 C225.569,110.393 224.460,110.030 223.388,109.680 C222.947,109.536 222.507,109.392 222.065,109.253 C221.418,109.049 221.123,108.675 220.990,108.397 C220.867,108.142 220.764,107.727 220.969,107.196 C221.256,106.454 221.949,106.092 222.743,106.244 C222.516,106.046 222.284,105.760 222.239,105.394 C222.175,104.889 222.365,104.181 222.843,103.866 C223.201,103.630 223.737,103.558 224.184,103.664 C223.876,103.287 223.728,102.849 223.771,102.421 C223.819,101.945 224.101,101.527 224.544,101.274 C225.181,100.910 225.838,101.020 226.497,101.600 C227.263,102.274 228.032,102.946 228.780,103.600 L229.038,103.826 C229.055,103.806 229.072,103.787 229.089,103.767 C229.565,103.226 230.015,102.715 230.459,102.187 C230.610,102.007 230.796,101.772 230.889,101.543 C231.987,98.854 233.259,96.678 234.777,94.891 C235.080,94.534 235.560,94.063 236.222,94.074 C236.947,94.089 237.421,94.694 237.577,94.893 C238.311,95.831 239.023,96.804 239.711,97.745 C240.121,98.304 240.544,98.883 240.966,99.445 C241.060,99.570 241.185,99.681 241.291,99.733 C241.852,100.009 242.427,100.280 242.995,100.545 C242.073,96.706 239.326,94.025 237.072,92.402 ZM235.289,99.621 L237.147,99.286 L236.240,98.057 L235.289,99.621 ZM232.391,115.628 C233.843,117.106 235.794,117.920 237.884,117.922 C237.886,117.922 237.888,117.922 237.890,117.922 C238.303,117.922 238.711,117.891 239.111,117.832 L239.034,117.666 L239.232,117.812 C240.836,117.547 242.302,116.807 243.454,115.662 C244.921,114.205 245.729,112.241 245.730,110.131 C245.732,108.028 244.927,106.065 243.466,104.603 C242.009,103.147 240.056,102.346 237.965,102.346 C237.962,102.346 237.958,102.346 237.955,102.346 C233.650,102.351 230.143,105.799 230.138,110.032 C230.135,112.161 230.935,114.148 232.391,115.628 ZM232.759,105.456 C232.972,104.668 233.617,104.241 234.438,104.339 C235.212,104.431 235.699,104.961 235.773,105.793 L235.787,105.967 C235.811,106.253 235.835,106.550 235.918,106.739 C236.128,107.216 236.682,107.154 236.847,107.123 C237.442,107.012 237.932,107.088 238.302,107.349 C238.527,107.507 238.813,107.812 238.902,108.365 C238.938,108.588 238.940,108.879 238.834,109.169 C239.164,108.986 239.581,108.853 239.985,109.009 C240.578,109.238 240.969,109.979 240.991,110.535 C241.018,111.225 241.154,111.398 241.298,111.483 C241.571,111.643 241.972,111.735 242.274,111.707 C243.236,111.616 243.866,111.984 244.150,112.801 C244.280,113.176 244.250,113.570 244.065,113.911 C243.844,114.320 243.420,114.620 242.871,114.755 C242.556,114.833 242.238,114.871 241.924,114.871 C241.029,114.871 240.155,114.562 239.434,113.974 C238.434,113.160 237.890,111.944 237.940,110.637 L237.947,110.557 C237.947,110.546 237.947,110.535 237.948,110.522 C237.952,110.394 237.966,110.186 238.040,109.973 C237.860,110.059 237.658,110.137 237.402,110.191 C237.145,110.245 236.886,110.272 236.628,110.272 C235.765,110.272 234.917,109.974 234.218,109.411 C233.243,108.624 232.656,107.406 232.648,106.153 L232.647,106.086 L232.663,105.985 C232.676,105.874 232.702,105.668 232.759,105.456 ZM257.096,63.665 C256.777,63.767 256.753,63.887 256.759,64.234 C256.772,64.936 256.769,65.649 256.766,66.338 C256.765,66.558 256.765,66.778 256.764,66.998 C256.762,68.307 256.313,68.751 254.987,68.759 L254.468,68.763 C253.732,68.768 252.971,68.775 252.221,68.754 C252.032,68.748 251.910,68.773 251.857,68.826 C251.804,68.880 251.781,68.998 251.788,69.179 C251.816,69.940 251.808,70.712 251.801,71.459 C251.799,71.646 251.797,71.832 251.796,72.019 C251.788,73.246 251.250,73.795 250.053,73.801 C249.251,73.805 248.495,73.807 247.774,73.807 C247.037,73.807 246.338,73.805 245.665,73.801 C244.521,73.794 243.963,73.223 243.957,72.054 C243.953,71.272 243.954,70.490 243.955,69.689 L243.956,68.819 L204.401,68.819 L204.401,69.681 C204.401,70.456 204.401,71.215 204.400,71.973 C204.398,73.253 203.848,73.800 202.559,73.802 C201.122,73.806 199.715,73.808 198.313,73.802 C197.110,73.796 196.570,73.250 196.560,72.031 C196.555,71.271 196.556,70.507 196.557,69.699 C196.558,69.394 196.558,69.082 196.559,68.760 L196.229,68.760 C195.832,68.761 195.452,68.761 195.071,68.760 C194.869,68.760 194.668,68.761 194.466,68.762 C193.990,68.766 193.498,68.769 193.012,68.749 C192.111,68.713 191.608,68.192 191.597,67.284 C191.585,66.252 191.590,65.203 191.596,64.188 L191.596,64.166 C191.598,63.861 191.598,63.779 191.329,63.698 C190.600,63.477 190.224,62.866 190.373,62.140 C190.527,61.386 191.070,60.963 191.854,60.980 C192.079,60.985 192.310,60.981 192.534,60.977 C192.894,60.971 193.266,60.964 193.633,60.993 C193.832,61.009 193.965,60.987 194.027,60.929 C194.094,60.866 194.126,60.719 194.124,60.477 C194.108,58.260 194.110,56.006 194.112,53.826 C194.112,53.093 194.113,52.361 194.113,51.628 L194.111,8.311 C194.111,7.804 194.110,7.297 194.110,6.790 C194.108,5.409 194.107,3.981 194.117,2.576 C194.124,1.527 194.641,0.999 195.698,0.963 C195.800,0.960 195.901,0.960 196.003,0.961 L196.130,0.962 L252.229,0.962 C252.954,0.962 253.506,1.032 253.844,1.376 C254.180,1.717 254.249,2.272 254.248,3.000 C254.247,16.011 254.247,29.022 254.248,42.033 L254.248,56.227 C254.248,56.575 254.249,56.924 254.249,57.272 C254.251,58.346 254.253,59.456 254.236,60.548 C254.233,60.749 254.258,60.873 254.315,60.927 C254.368,60.978 254.483,60.999 254.655,60.989 C255.099,60.964 255.549,60.971 255.984,60.977 C256.182,60.980 256.379,60.983 256.577,60.983 C257.319,60.984 257.832,61.404 257.983,62.137 C258.129,62.846 257.780,63.445 257.096,63.665 ZM246.817,70.954 C246.866,71.004 247.129,70.999 247.407,70.993 C247.530,70.991 247.670,70.989 247.830,70.989 C248.004,70.989 248.159,70.991 248.293,70.994 C248.596,70.999 248.883,71.004 248.935,70.952 C248.991,70.896 248.987,70.589 248.982,70.233 C248.981,70.121 248.979,69.997 248.978,69.859 C248.977,69.677 248.981,69.519 248.983,69.383 C248.989,69.116 248.993,68.864 248.947,68.817 C248.885,68.755 248.531,68.759 248.122,68.765 L247.875,68.768 C247.700,68.769 247.548,68.768 247.416,68.767 C247.128,68.765 246.856,68.762 246.809,68.809 C246.760,68.858 246.763,69.150 246.765,69.460 C246.767,69.579 246.768,69.713 246.767,69.864 L246.764,70.128 C246.758,70.537 246.753,70.891 246.817,70.954 ZM199.412,70.949 C199.460,70.998 199.740,70.995 200.036,70.992 C200.131,70.991 200.235,70.990 200.351,70.990 C200.408,70.990 200.467,70.990 200.530,70.991 C200.653,70.992 200.764,70.994 200.865,70.996 C201.201,71.003 201.490,71.008 201.544,70.955 C201.597,70.903 201.596,70.607 201.595,70.295 C201.594,70.181 201.594,70.053 201.595,69.911 C201.591,69.723 201.591,69.560 201.591,69.420 C201.590,69.127 201.589,68.850 201.540,68.802 C201.488,68.750 201.186,68.756 200.866,68.761 C200.742,68.763 200.603,68.765 200.445,68.766 C200.309,68.766 200.188,68.766 200.079,68.765 C199.765,68.763 199.468,68.761 199.417,68.812 C199.368,68.861 199.371,69.143 199.374,69.440 C199.375,69.561 199.377,69.699 199.376,69.855 C199.375,70.011 199.373,70.148 199.371,70.270 C199.365,70.593 199.360,70.897 199.412,70.949 ZM251.366,3.857 C251.297,3.788 251.148,3.757 250.885,3.757 C250.884,3.757 250.883,3.757 250.883,3.757 C236.030,3.769 220.928,3.768 206.325,3.767 L197.690,3.767 C197.329,3.769 197.031,3.767 196.968,3.830 C196.906,3.893 196.906,4.182 196.906,4.548 C196.906,23.162 196.907,41.776 196.909,60.389 C196.909,60.549 196.919,60.708 196.930,60.892 C196.932,60.920 196.933,60.948 196.935,60.977 C197.056,60.975 197.175,60.971 197.292,60.968 C197.692,60.957 198.069,60.946 198.448,60.992 C198.714,61.025 198.883,61.004 198.967,60.929 C199.060,60.847 199.101,60.654 199.101,60.303 C199.085,45.364 199.086,30.174 199.088,15.484 L199.089,7.930 C199.089,6.380 199.474,6.001 201.047,6.000 C206.093,5.997 211.138,5.996 216.184,5.995 L219.903,5.994 C225.792,5.993 231.681,5.992 237.570,5.992 C240.910,5.992 244.249,5.993 247.590,5.993 C248.785,5.994 249.273,6.492 249.273,7.714 L249.273,14.465 C249.273,29.319 249.273,44.172 249.269,59.025 L249.269,59.057 C249.269,60.110 249.269,60.691 249.490,60.895 C249.715,61.102 250.315,61.053 251.402,60.965 C251.408,60.962 251.423,60.955 251.447,60.946 C251.449,60.945 251.451,60.944 251.453,60.944 L251.453,52.610 C251.453,36.787 251.452,20.425 251.467,4.332 C251.467,4.077 251.435,3.926 251.366,3.857 ZM201.855,32.974 C201.855,33.199 201.888,33.347 201.955,33.414 C202.036,33.495 202.211,33.510 202.483,33.511 C207.442,33.500 212.482,33.501 217.358,33.501 L221.996,33.502 C222.341,33.502 222.639,33.502 222.700,33.443 C222.758,33.386 222.758,33.099 222.758,32.767 L222.758,8.851 L201.893,8.851 C201.892,8.868 201.891,8.886 201.890,8.902 C201.880,9.048 201.872,9.162 201.872,9.277 C201.871,11.182 201.872,13.087 201.872,14.992 C201.873,20.885 201.873,26.980 201.855,32.974 ZM222.712,36.319 C222.705,36.318 222.699,36.317 222.692,36.317 C222.561,36.303 222.447,36.292 222.335,36.292 C220.591,36.291 218.847,36.291 217.102,36.291 C212.258,36.292 207.249,36.292 202.323,36.276 C202.321,36.276 202.319,36.276 202.316,36.276 C202.125,36.276 201.999,36.304 201.943,36.360 C201.876,36.428 201.862,36.593 201.862,36.821 C201.872,44.361 201.880,52.386 201.855,60.311 C201.854,60.621 201.891,60.797 201.975,60.880 C202.058,60.964 202.229,60.997 202.546,60.999 C207.601,60.977 212.739,60.980 217.708,60.981 C219.184,60.982 220.659,60.982 222.135,60.982 L222.712,60.982 L222.712,36.319 ZM225.654,33.442 C225.709,33.498 225.999,33.498 226.306,33.498 C228.131,33.498 229.955,33.498 231.780,33.497 C233.071,33.497 234.375,33.496 235.686,33.496 C239.069,33.496 242.499,33.499 245.889,33.511 C246.158,33.514 246.319,33.478 246.393,33.405 C246.467,33.330 246.500,33.171 246.499,32.889 C246.484,27.031 246.486,21.076 246.487,15.317 C246.487,13.346 246.487,11.375 246.487,9.404 C246.487,9.241 246.477,9.078 246.466,8.906 C246.465,8.889 246.464,8.873 246.463,8.856 L225.599,8.856 L225.599,32.784 C225.599,33.107 225.599,33.386 225.654,33.442 ZM225.648,36.331 L225.648,60.960 C225.657,60.961 225.667,60.962 225.676,60.963 C225.803,60.972 225.903,60.980 226.001,60.980 C227.647,60.981 229.293,60.980 230.939,60.980 C232.038,60.980 233.146,60.980 234.259,60.980 C238.125,60.980 242.058,60.982 245.942,60.996 C245.944,60.996 245.947,60.996 245.950,60.996 C246.184,60.996 246.330,60.963 246.399,60.894 C246.470,60.823 246.500,60.672 246.499,60.387 C246.488,54.616 246.488,48.749 246.488,43.074 C246.488,41.016 246.488,38.957 246.488,36.899 C246.488,36.738 246.477,36.573 246.465,36.398 C246.464,36.376 246.462,36.353 246.461,36.331 L225.648,36.331 ZM253.915,63.832 C253.850,63.766 253.551,63.768 253.180,63.767 C237.236,63.768 221.304,63.769 205.371,63.769 L195.811,63.770 C195.693,63.770 195.575,63.766 195.456,63.763 C195.172,63.755 194.903,63.747 194.643,63.786 C194.575,63.796 194.418,63.931 194.399,63.995 C194.369,64.488 194.373,64.999 194.378,65.540 C194.379,65.675 194.380,65.811 194.381,65.950 L207.364,65.950 C222.460,65.949 237.557,65.949 252.653,65.947 C253.312,65.947 253.709,65.947 253.840,65.814 C253.972,65.679 253.974,65.270 253.977,64.593 C253.979,64.205 253.981,63.898 253.915,63.832 ZM239.174,58.118 L238.841,58.450 C238.454,58.836 238.108,58.966 237.817,58.966 C237.594,58.966 237.404,58.889 237.253,58.793 C236.983,58.621 236.781,58.376 236.567,58.117 C236.476,58.006 236.381,57.892 236.281,57.783 L236.176,57.669 L236.253,57.534 C236.339,57.383 236.410,57.240 236.473,57.113 C236.601,56.856 236.712,56.635 236.884,56.458 C238.320,54.993 239.872,53.435 241.916,51.407 C242.545,50.784 243.388,50.739 243.967,51.299 C244.250,51.573 244.402,51.909 244.406,52.269 C244.410,52.657 244.244,53.032 243.926,53.354 C242.350,54.950 240.735,56.560 239.174,58.118 ZM241.105,48.645 C240.958,48.787 240.760,48.838 240.530,48.898 C240.419,48.927 240.304,48.957 240.178,49.001 L240.065,49.040 L239.973,48.963 C239.896,48.899 239.803,48.836 239.704,48.769 C239.452,48.599 239.166,48.407 239.060,48.118 C238.907,47.700 238.933,47.011 239.215,46.690 C240.156,45.619 241.179,44.634 242.147,43.716 C242.629,43.259 243.468,43.299 243.980,43.803 C244.441,44.258 244.599,45.105 244.098,45.641 C243.098,46.712 242.069,47.717 241.105,48.645 ZM239.508,49.594 L239.605,49.709 L239.530,49.838 C239.444,49.987 239.373,50.125 239.311,50.246 C239.187,50.488 239.081,50.697 238.917,50.862 C236.638,53.166 234.170,55.642 231.372,58.431 C231.028,58.773 230.641,58.945 230.264,58.945 C229.928,58.945 229.601,58.809 229.319,58.533 C229.062,58.282 228.920,57.943 228.917,57.577 C228.914,57.169 229.082,56.774 229.390,56.464 C231.504,54.337 233.659,52.180 235.744,50.094 L236.938,48.900 C237.653,48.184 238.234,48.323 238.595,48.566 C238.862,48.746 239.061,49.011 239.252,49.267 C239.335,49.377 239.419,49.490 239.508,49.594 ZM208.596,12.300 C208.693,12.203 208.789,12.105 208.884,12.007 C209.116,11.768 209.356,11.522 209.612,11.296 C210.204,10.774 211.022,10.779 211.556,11.310 C212.088,11.838 212.094,12.736 211.569,13.271 C209.897,14.974 208.130,16.743 206.317,18.528 C206.156,18.685 205.947,18.769 205.706,18.866 C205.585,18.915 205.459,18.965 205.322,19.031 L205.198,19.090 L205.093,19.001 C204.999,18.921 204.897,18.847 204.789,18.769 C204.535,18.584 204.272,18.394 204.113,18.122 C203.801,17.588 203.923,16.981 204.448,16.456 L208.596,12.300 ZM206.612,21.767 C206.892,21.492 207.173,21.216 207.451,20.938 L208.372,20.015 C209.130,19.254 209.888,18.494 210.650,17.737 C211.024,17.366 211.442,17.170 211.861,17.170 C211.865,17.170 211.868,17.170 211.872,17.170 C212.225,17.173 212.552,17.318 212.816,17.589 C213.398,18.186 213.337,19.012 212.660,19.694 C210.684,21.684 208.566,23.812 206.458,25.894 C206.272,26.078 206.044,26.199 205.781,26.339 C205.651,26.408 205.517,26.479 205.374,26.565 L205.241,26.645 L205.125,26.543 C205.015,26.447 204.889,26.356 204.768,26.269 C204.469,26.054 204.187,25.851 204.112,25.549 C204.002,25.109 204.090,24.401 204.422,24.023 C205.115,23.236 205.876,22.489 206.612,21.767 ZM213.167,15.199 C213.488,14.871 213.897,14.682 214.291,14.679 C214.692,14.679 215.067,14.833 215.338,15.109 C215.597,15.373 215.735,15.719 215.726,16.082 C215.706,16.853 214.843,17.694 214.074,17.694 C214.072,17.694 214.069,17.694 214.067,17.694 C213.327,17.689 212.693,17.053 212.682,16.304 C212.677,15.922 212.854,15.519 213.167,15.199 ZM215.153,14.070 L215.078,13.978 L215.117,13.867 C215.162,13.735 215.193,13.616 215.221,13.511 C215.278,13.297 215.327,13.112 215.455,12.974 C216.075,12.304 216.640,11.705 217.269,11.169 C217.783,10.731 218.581,10.820 219.085,11.371 C219.559,11.888 219.571,12.692 219.113,13.200 L219.024,13.299 C218.532,13.847 218.022,14.412 217.422,14.853 C217.204,15.014 216.864,15.101 216.537,15.101 C216.347,15.101 216.162,15.072 216.007,15.010 C215.708,14.891 215.512,14.595 215.340,14.334 C215.275,14.236 215.213,14.143 215.153,14.070 ZM185.982,93.425 C185.064,93.715 184.825,94.111 184.830,95.022 C184.867,102.117 184.817,109.212 184.868,116.306 C184.885,118.681 183.983,120.398 181.898,121.534 C181.632,121.679 181.424,122.087 181.359,122.408 C181.264,122.879 181.339,123.383 181.309,123.871 C181.250,124.857 180.545,125.562 179.658,125.547 C178.796,125.533 178.064,124.784 178.015,123.830 C177.987,123.278 178.010,122.723 178.010,122.005 C177.510,122.005 177.105,122.005 176.701,122.005 C151.621,122.005 126.542,122.010 101.463,121.990 C100.640,121.990 100.366,122.210 100.387,123.050 C100.431,124.755 99.830,125.579 98.720,125.545 C97.647,125.512 97.063,124.686 97.111,123.075 C97.137,122.197 96.948,121.658 96.084,121.188 C94.313,120.224 93.550,118.567 93.548,116.567 C93.544,109.402 93.547,102.238 93.547,95.074 C93.547,94.659 93.547,94.245 93.547,93.859 C87.732,92.109 86.090,87.643 86.663,83.729 C87.018,81.302 88.325,79.400 90.344,77.990 C92.345,76.592 94.608,76.408 97.100,76.624 C97.100,74.709 97.098,72.905 97.100,71.100 C97.103,67.941 97.976,65.034 99.761,62.436 C102.891,57.880 107.291,55.466 112.774,55.441 C130.413,55.359 148.053,55.378 165.692,55.426 C173.586,55.448 180.272,61.377 181.215,69.132 C181.445,71.029 181.299,72.971 181.322,74.893 C181.329,75.442 181.323,75.991 181.323,76.490 C182.716,76.585 183.987,76.519 185.186,76.783 C189.068,77.636 191.734,80.932 191.942,84.950 C192.130,88.597 189.600,92.280 185.982,93.425 ZM105.266,118.719 C127.226,118.692 149.187,118.702 171.147,118.705 C172.189,118.705 173.230,118.705 174.365,118.705 C174.410,118.376 174.454,118.208 174.454,118.039 C174.459,113.778 174.439,109.516 174.475,105.254 C174.483,104.384 173.998,104.413 173.407,104.414 C169.218,104.420 165.028,104.417 160.839,104.417 C142.265,104.415 123.691,104.422 105.117,104.389 C104.099,104.388 103.910,104.746 103.919,105.659 C103.961,109.571 103.978,113.485 103.911,117.396 C103.892,118.484 104.224,118.721 105.266,118.719 ZM105.131,101.135 C127.828,101.106 150.524,101.110 173.221,101.109 C173.594,101.109 173.967,101.109 174.367,101.109 C174.367,99.821 174.367,98.665 174.367,97.498 C150.886,97.498 127.498,97.498 103.938,97.498 C103.938,98.376 103.996,99.143 103.924,99.898 C103.833,100.848 104.148,101.137 105.131,101.135 ZM94.584,79.876 C92.031,80.206 90.008,82.358 89.890,84.869 C89.761,87.613 91.551,89.946 94.240,90.426 C95.158,90.590 96.111,90.574 97.049,90.604 C97.910,90.632 98.439,91.098 98.634,91.870 C98.835,92.668 98.512,93.407 97.748,93.673 C96.971,93.943 96.893,94.406 96.895,95.089 C96.911,102.106 96.900,109.124 96.908,116.141 C96.910,118.071 97.583,118.669 99.492,118.726 C100.440,118.755 100.666,118.417 100.660,117.520 C100.623,112.178 100.642,106.836 100.642,101.494 C100.639,101.494 100.636,101.494 100.634,101.494 C100.634,96.222 100.641,90.950 100.624,85.678 C100.622,85.057 100.555,84.418 100.397,83.819 C99.729,81.296 97.122,79.549 94.584,79.876 ZM172.032,60.587 C169.543,58.988 166.757,58.753 163.894,58.760 C153.699,58.783 143.504,58.757 133.309,58.772 C126.187,58.783 119.064,58.741 111.945,58.891 C106.701,59.002 101.853,63.041 100.866,68.239 C100.364,70.883 100.574,73.656 100.382,76.365 C100.293,77.611 100.567,78.599 101.603,79.361 C101.929,79.600 102.164,79.981 102.397,80.327 C103.415,81.840 103.956,83.498 103.942,85.340 C103.922,88.199 103.937,91.058 103.937,94.006 C127.482,94.006 150.922,94.006 174.460,94.006 C174.460,91.212 174.431,88.491 174.468,85.772 C174.506,83.008 175.386,80.588 177.468,78.659 C177.772,78.378 177.974,77.839 177.984,77.413 C178.034,75.283 178.047,73.151 177.992,71.021 C177.874,66.487 175.830,63.027 172.032,60.587 ZM188.425,83.941 C187.719,81.028 184.598,79.209 181.781,80.070 C179.405,80.796 177.890,82.917 177.878,85.656 C177.855,90.898 177.872,96.140 177.874,101.383 C177.874,106.800 177.869,112.217 177.887,117.634 C177.888,117.975 177.970,118.507 178.189,118.625 C179.621,119.401 181.544,118.185 181.547,116.509 C181.563,109.275 181.552,102.041 181.559,94.806 C181.560,94.321 181.520,93.993 180.929,93.807 C179.997,93.515 179.655,92.754 179.874,91.809 C180.078,90.927 180.713,90.614 181.583,90.597 C182.522,90.578 183.476,90.574 184.394,90.403 C187.249,89.871 189.122,86.818 188.425,83.941 ZM163.923,74.831 C162.480,75.519 161.240,76.316 161.994,78.245 C162.006,78.276 162.006,78.319 161.994,78.349 C161.319,80.035 162.341,80.774 163.656,81.376 C164.033,81.549 164.381,81.795 164.721,82.038 C165.571,82.648 165.776,83.506 165.283,84.311 C164.800,85.102 163.881,85.359 163.005,84.873 C162.031,84.331 161.120,83.671 160.128,83.168 C159.728,82.965 159.129,82.881 158.717,83.023 C157.437,83.464 156.219,83.460 154.939,83.025 C154.526,82.885 153.932,82.971 153.529,83.171 C152.595,83.635 151.736,84.245 150.831,84.769 C149.835,85.346 148.871,85.159 148.353,84.324 C147.841,83.499 148.119,82.552 149.086,81.922 C149.817,81.447 150.548,80.965 151.317,80.560 C151.860,80.274 151.920,79.929 151.806,79.375 C151.682,78.771 151.509,78.072 151.697,77.532 C152.088,76.409 151.632,75.889 150.711,75.433 C150.027,75.095 149.273,74.745 148.799,74.189 C148.416,73.740 148.176,72.924 148.298,72.364 C148.407,71.871 149.105,71.508 149.504,71.124 C150.125,71.344 150.500,71.429 150.829,71.603 C151.351,71.880 151.863,72.187 152.341,72.534 C153.416,73.315 154.432,73.729 155.858,73.175 C156.658,72.865 157.740,73.317 158.698,73.367 C159.169,73.391 159.710,73.410 160.110,73.211 C161.042,72.745 161.898,72.129 162.801,71.604 C163.787,71.031 164.782,71.228 165.277,72.057 C165.799,72.932 165.540,73.791 164.548,74.451 C164.345,74.586 164.142,74.727 163.923,74.831 ZM156.869,76.330 C155.930,76.299 155.058,77.120 155.004,78.086 C154.945,79.132 155.720,79.963 156.778,79.987 C157.779,80.009 158.612,79.257 158.669,78.279 C158.725,77.311 157.849,76.362 156.869,76.330 ZM127.088,75.889 C126.833,76.082 126.677,76.534 126.654,76.881 C126.595,77.736 126.591,78.603 126.663,79.457 C126.694,79.830 126.867,80.309 127.143,80.522 C127.830,81.050 128.622,81.439 129.356,81.908 C130.332,82.532 130.607,83.456 130.098,84.308 C129.594,85.150 128.632,85.341 127.634,84.781 C127.239,84.559 126.836,84.341 126.480,84.065 C125.215,83.084 123.950,82.610 122.288,83.257 C121.585,83.531 120.614,83.073 119.759,83.015 C119.287,82.984 118.741,82.963 118.340,83.163 C117.408,83.627 116.552,84.242 115.649,84.769 C114.653,85.350 113.686,85.163 113.181,84.323 C112.691,83.510 112.986,82.534 113.916,81.913 C114.147,81.758 114.385,81.611 114.627,81.474 C115.883,80.765 117.275,80.204 116.456,78.233 C116.241,77.715 116.613,76.953 116.731,76.200 C115.749,75.592 114.792,75.022 113.859,74.417 C112.972,73.842 112.704,72.886 113.162,72.082 C113.635,71.252 114.667,71.028 115.630,71.587 C116.564,72.130 117.448,72.762 118.406,73.255 C118.773,73.444 119.335,73.505 119.717,73.369 C121.030,72.899 122.285,72.908 123.590,73.390 C123.942,73.520 124.470,73.460 124.810,73.283 C125.735,72.802 126.597,72.200 127.495,71.666 C128.536,71.046 129.534,71.198 130.079,72.035 C130.637,72.893 130.350,73.821 129.296,74.494 C128.562,74.963 127.779,75.365 127.088,75.889 ZM121.654,76.332 C120.706,76.305 119.859,77.133 119.831,78.111 C119.801,79.193 120.558,79.990 121.620,79.995 C122.614,80.000 123.443,79.226 123.487,78.253 C123.530,77.290 122.642,76.359 121.654,76.332 ZM174.422,31.693 C174.020,31.812 173.956,32.005 173.963,32.393 C173.979,33.215 173.975,34.050 173.970,34.858 L173.968,35.226 C173.962,36.370 173.507,36.818 172.344,36.823 C171.582,36.827 170.820,36.826 170.036,36.825 L169.028,36.825 C169.024,36.902 169.019,36.976 169.015,37.047 C169.003,37.226 168.993,37.395 168.992,37.559 C168.991,38.263 168.992,38.967 168.993,39.671 C168.994,40.642 168.995,41.614 168.992,42.585 C168.987,43.853 168.522,44.325 167.274,44.327 C165.883,44.330 164.491,44.330 163.100,44.327 C162.071,44.324 161.737,44.079 161.398,43.074 C161.240,42.603 161.080,42.133 160.920,41.663 C160.452,40.286 159.968,38.862 159.526,37.450 C159.373,36.962 159.172,36.813 158.666,36.813 C158.664,36.813 158.663,36.813 158.662,36.813 C148.931,36.826 139.039,36.825 129.471,36.825 L123.997,36.825 C123.571,36.825 123.144,36.826 122.717,36.827 C121.560,36.830 120.363,36.833 119.186,36.815 C118.763,36.810 118.596,36.933 118.463,37.349 C117.966,38.906 117.434,40.480 116.920,42.002 L116.525,43.173 C116.229,44.052 115.863,44.321 114.960,44.325 C114.236,44.329 113.502,44.331 112.745,44.331 C112.044,44.331 111.323,44.329 110.573,44.326 C109.462,44.322 108.965,43.818 108.961,42.692 C108.958,41.712 108.959,40.732 108.960,39.752 C108.960,39.033 108.961,38.315 108.960,37.596 C108.960,37.429 108.951,37.263 108.940,37.070 C108.936,36.993 108.932,36.912 108.928,36.826 L108.146,36.826 C107.540,36.827 106.948,36.827 106.356,36.826 C104.167,36.820 103.990,36.646 103.987,34.491 C103.987,34.306 103.986,34.120 103.986,33.934 C103.984,33.420 103.982,32.889 103.991,32.366 C103.998,31.997 103.959,31.812 103.581,31.709 C103.007,31.554 102.687,31.066 102.744,30.438 C102.799,29.842 103.177,29.431 103.781,29.310 C104.017,29.262 104.261,29.262 104.497,29.262 C108.905,29.262 113.312,29.262 117.720,29.262 L127.288,29.262 L124.133,27.088 L124.173,27.029 L136.188,9.575 L140.461,12.520 L140.461,6.216 L148.584,6.216 L148.584,12.841 L155.358,12.841 L155.358,6.216 L166.189,6.216 L166.189,29.261 L173.473,29.261 C173.753,29.261 174.016,29.288 174.255,29.340 C174.809,29.461 175.157,29.868 175.209,30.457 C175.261,31.050 174.952,31.536 174.422,31.693 ZM162.318,37.859 C162.729,39.109 163.117,40.290 163.531,41.473 C163.576,41.602 163.823,41.766 163.986,41.776 C164.659,41.819 165.345,41.821 166.024,41.781 C166.161,41.773 166.404,41.568 166.406,41.483 L166.406,41.483 C166.431,40.258 166.429,39.058 166.427,37.787 C166.427,37.481 166.427,37.173 166.426,36.864 L161.990,36.864 C162.101,37.199 162.210,37.531 162.318,37.859 ZM111.536,41.461 C111.539,41.553 111.809,41.770 111.967,41.783 C112.298,41.810 112.638,41.807 112.968,41.803 C113.082,41.802 113.199,41.800 113.316,41.800 C113.475,41.800 113.636,41.803 113.795,41.811 C114.200,41.832 114.387,41.687 114.512,41.260 C114.682,40.676 114.883,40.092 115.076,39.527 C115.176,39.236 115.275,38.946 115.372,38.655 C115.510,38.234 115.645,37.811 115.784,37.374 L115.946,36.863 L111.514,36.863 C111.514,37.178 111.513,37.491 111.513,37.802 C111.511,39.060 111.508,40.249 111.536,41.461 ZM136.805,12.923 L127.478,26.471 L130.206,28.351 L139.533,14.802 L136.805,12.923 ZM140.461,17.697 L132.500,29.262 L140.461,29.261 L140.461,17.697 ZM146.179,8.623 L142.867,8.623 L142.867,29.261 L146.179,29.261 L146.179,8.623 ZM155.207,15.247 L149.186,15.247 L149.186,29.261 L155.207,29.261 L155.207,15.247 ZM163.784,8.623 L157.763,8.623 L157.763,29.261 L163.784,29.261 L163.784,8.623 ZM171.301,31.898 C171.182,31.791 170.983,31.758 170.691,31.797 C170.610,31.808 170.528,31.803 170.450,31.799 C170.409,31.797 170.369,31.794 170.329,31.794 L166.189,31.795 L166.119,31.808 L140.461,31.808 L140.461,31.795 L135.958,31.795 C126.673,31.795 117.387,31.796 108.101,31.792 L108.064,31.792 C107.260,31.792 106.853,31.792 106.668,31.978 C106.482,32.165 106.485,32.574 106.489,33.387 C106.492,33.847 106.494,34.101 106.600,34.204 C106.708,34.309 106.969,34.309 107.442,34.309 L149.235,34.309 L169.742,34.309 C170.608,34.309 171.042,34.309 171.248,34.116 C171.453,33.924 171.462,33.510 171.480,32.684 L171.482,32.595 C171.489,32.236 171.432,32.015 171.301,31.898 ZM80.002,83.193 C79.339,84.386 78.575,85.438 77.730,86.321 C75.798,88.340 73.133,88.752 70.601,87.423 C70.008,87.113 69.466,86.743 68.891,86.351 C68.686,86.211 68.475,86.068 68.261,85.926 L67.388,86.575 C66.022,87.592 64.609,88.643 63.216,89.699 C63.150,89.748 63.077,89.900 63.077,89.989 C63.063,91.378 63.064,91.954 63.065,92.999 L63.065,93.907 L68.109,93.906 C72.254,93.906 76.398,93.906 80.543,93.907 C81.860,93.907 82.305,94.345 82.308,95.643 L82.309,96.054 C82.311,97.216 82.316,99.161 82.305,100.036 C82.294,101.019 81.793,101.526 80.818,101.543 C80.297,101.553 79.785,101.551 79.244,101.548 C79.086,101.548 78.928,101.547 78.768,101.547 L77.227,113.270 C76.959,115.316 76.690,117.362 76.421,119.408 C76.382,119.704 76.345,120.000 76.307,120.296 C76.203,121.109 76.096,121.950 75.965,122.775 C75.805,123.785 75.326,124.197 74.313,124.198 C70.257,124.199 66.200,124.200 62.144,124.200 C58.370,124.200 54.597,124.199 50.824,124.198 C49.781,124.198 49.254,123.745 49.115,122.730 C48.860,120.864 48.616,118.966 48.381,117.130 C48.279,116.334 48.177,115.538 48.073,114.743 L47.961,113.879 C47.556,110.758 47.151,107.636 46.743,104.515 C46.649,103.799 46.551,103.084 46.450,102.344 L46.341,101.547 L44.394,101.547 C42.382,101.547 42.127,101.289 42.126,99.249 C42.126,98.541 42.126,96.417 42.127,95.709 C42.128,94.328 42.558,93.907 43.965,93.907 L60.238,93.907 L60.239,92.867 C60.240,91.562 60.241,90.774 60.226,89.139 C60.226,89.055 60.144,88.901 60.070,88.846 C59.080,88.103 58.070,87.368 57.093,86.656 L56.390,86.143 C56.177,86.272 55.966,86.403 55.761,86.530 C55.185,86.887 54.642,87.225 54.053,87.507 C51.593,88.685 49.148,88.287 47.168,86.386 C45.623,84.903 44.492,83.019 43.709,80.628 C43.100,78.763 42.622,76.825 42.161,74.952 L41.980,74.218 C41.848,73.686 41.894,73.249 42.115,72.919 C42.350,72.568 42.761,72.355 43.371,72.266 L43.773,72.207 C44.631,72.080 45.519,71.949 46.401,71.880 C48.669,71.702 51.109,71.621 53.586,72.229 C55.863,72.788 57.503,73.907 58.460,75.557 C59.345,77.083 59.589,79.031 59.164,81.190 C59.023,81.906 58.810,82.588 58.584,83.311 C58.502,83.574 58.417,83.845 58.336,84.119 L60.232,85.519 C60.235,85.464 60.237,85.411 60.237,85.359 C60.238,84.369 60.238,82.404 60.237,79.975 C60.237,73.080 60.235,62.659 60.252,59.874 C60.254,59.518 60.194,59.436 59.845,59.325 C55.888,58.069 52.109,54.167 52.587,48.282 C52.947,43.859 56.671,39.932 61.251,39.148 C63.857,38.702 66.652,39.384 68.917,41.020 C71.201,42.668 72.740,45.121 73.140,47.750 C73.582,50.657 72.755,53.647 70.870,55.954 C68.984,58.262 66.274,59.615 63.240,59.763 C63.198,59.765 63.156,59.769 63.111,59.772 L63.111,86.286 L66.417,83.906 C66.335,83.565 66.247,83.227 66.162,82.898 C65.937,82.034 65.726,81.217 65.618,80.366 C65.091,76.203 67.064,73.320 71.175,72.249 C73.621,71.611 76.109,71.694 78.433,71.879 C79.238,71.943 80.048,72.059 80.832,72.171 C81.042,72.201 81.251,72.231 81.461,72.261 C82.081,72.347 82.480,72.540 82.719,72.869 C82.960,73.202 83.019,73.654 82.904,74.291 C82.226,78.052 81.331,80.797 80.002,83.193 ZM55.932,76.771 C55.288,75.783 54.158,75.119 52.577,74.799 C51.571,74.595 50.632,74.494 49.767,74.497 C48.542,74.503 47.336,74.565 46.060,74.631 C45.636,74.653 45.209,74.675 44.778,74.694 C45.335,77.424 45.998,79.450 46.916,81.231 C47.541,82.445 48.192,83.414 48.907,84.194 C49.593,84.944 50.429,85.346 51.324,85.357 C52.216,85.367 53.118,84.981 53.894,84.262 C53.838,84.214 53.782,84.168 53.726,84.126 C53.265,83.784 52.803,83.444 52.342,83.104 C51.435,82.436 50.498,81.745 49.584,81.053 C49.219,80.777 48.990,80.400 48.940,79.991 C48.896,79.626 49.000,79.265 49.234,78.975 C49.709,78.388 50.564,78.313 51.268,78.797 C51.404,78.890 51.535,78.991 51.661,79.088 C51.721,79.134 51.782,79.181 51.843,79.226 L55.892,82.258 C55.931,82.144 55.969,82.033 56.006,81.925 C56.164,81.466 56.300,81.071 56.389,80.662 C56.734,79.072 56.580,77.763 55.932,76.771 ZM51.821,121.340 L73.294,121.340 L75.926,101.580 L49.185,101.580 L51.821,121.340 ZM44.984,96.782 L44.984,98.682 L79.438,98.682 L79.438,96.782 L44.984,96.782 ZM68.223,54.587 C69.651,53.154 70.433,51.250 70.427,49.227 C70.415,45.122 67.071,41.775 62.974,41.766 C62.968,41.766 62.962,41.766 62.957,41.766 C60.899,41.766 58.985,42.547 57.566,43.967 C56.159,45.374 55.387,47.264 55.391,49.288 C55.399,53.578 58.612,56.812 62.863,56.813 C62.864,56.813 62.864,56.813 62.865,56.813 C64.891,56.812 66.794,56.022 68.223,54.587 ZM73.586,74.607 C72.462,74.763 71.322,75.075 70.289,75.511 C69.135,75.997 68.449,76.959 68.307,78.291 C68.183,79.440 68.344,80.624 68.826,82.091 C68.906,82.037 68.980,81.987 69.052,81.934 C69.525,81.581 69.998,81.227 70.470,80.873 C71.265,80.277 72.087,79.662 72.900,79.062 C73.599,78.545 74.542,78.624 75.000,79.238 C75.461,79.855 75.284,80.763 74.596,81.305 C74.249,81.578 73.889,81.843 73.540,82.099 C73.362,82.230 73.184,82.361 73.007,82.493 C72.405,82.944 71.803,83.395 71.171,83.869 L70.611,84.289 C70.666,84.325 70.719,84.361 70.772,84.396 C71.088,84.608 71.362,84.791 71.651,84.944 C73.302,85.820 74.654,85.603 75.904,84.260 C76.399,83.729 76.845,83.116 77.230,82.437 C78.583,80.050 79.309,77.410 79.876,74.893 C77.881,74.557 75.748,74.308 73.586,74.607 ZM61.813,54.544 C61.621,54.546 61.426,54.547 61.230,54.547 C60.991,54.547 60.751,54.545 60.512,54.537 C59.665,54.511 59.127,53.986 59.109,53.168 C59.099,52.750 59.225,52.393 59.473,52.135 C59.725,51.872 60.088,51.729 60.521,51.722 C61.120,51.711 61.728,51.713 62.316,51.714 C62.841,51.716 63.385,51.717 63.918,51.710 C64.732,51.699 64.768,51.489 64.765,51.087 C64.759,50.203 64.463,50.033 63.884,50.015 C63.625,50.008 63.358,50.010 63.100,50.012 C62.824,50.014 62.539,50.016 62.256,50.006 C61.913,49.995 61.619,49.952 61.355,49.876 C59.743,49.410 58.848,47.685 59.128,45.581 C59.375,43.729 60.534,42.662 62.308,42.655 L62.806,42.653 C63.526,42.650 64.270,42.646 65.003,42.659 C65.896,42.674 66.454,43.210 66.460,44.057 C66.466,44.902 65.901,45.459 65.022,45.478 C64.538,45.488 64.048,45.485 63.574,45.483 C63.230,45.482 62.886,45.480 62.542,45.483 C62.276,45.485 62.121,45.519 62.052,45.589 C61.939,45.704 61.930,46.049 61.932,46.299 C61.940,47.102 62.100,47.173 62.593,47.187 C62.796,47.192 63.007,47.191 63.210,47.190 C63.742,47.187 64.291,47.183 64.824,47.295 C66.753,47.699 67.785,49.298 67.585,51.573 C67.435,53.284 66.050,54.475 64.138,54.537 C63.733,54.551 63.324,54.547 62.928,54.544 C62.738,54.543 62.548,54.541 62.361,54.541 C62.178,54.541 61.996,54.543 61.813,54.544 ZM73.471,104.411 C73.395,104.535 73.332,104.652 73.271,104.765 C73.147,104.995 73.030,105.212 72.856,105.388 C69.082,109.179 65.060,113.207 59.814,118.447 C59.462,118.798 59.058,118.975 58.668,118.975 C58.330,118.975 58.003,118.843 57.729,118.576 C57.439,118.295 57.278,117.932 57.276,117.555 C57.274,117.149 57.456,116.743 57.788,116.412 L57.800,116.400 C62.102,112.121 66.550,107.697 70.962,103.383 C71.309,103.043 72.036,102.955 72.498,103.086 C72.817,103.177 73.020,103.476 73.216,103.765 C73.291,103.875 73.368,103.989 73.446,104.082 L73.576,104.238 L73.471,104.411 ZM61.310,107.580 C61.156,107.726 61.002,107.871 60.854,108.020 C60.216,108.658 59.579,109.296 58.941,109.934 C57.980,110.895 57.020,111.856 56.060,112.818 C55.683,113.197 55.314,113.324 54.988,113.324 C54.736,113.324 54.510,113.248 54.326,113.152 C53.737,112.848 53.469,112.291 53.609,111.662 C53.673,111.370 53.855,111.052 54.094,110.811 C56.310,108.571 58.353,106.527 60.338,104.563 C60.514,104.390 60.722,104.282 60.964,104.156 C61.078,104.096 61.197,104.035 61.323,103.961 L61.489,103.862 L61.641,103.982 C61.736,104.057 61.850,104.129 61.960,104.200 C62.248,104.384 62.546,104.575 62.655,104.884 C62.810,105.328 62.717,105.991 62.447,106.362 C62.118,106.816 61.707,107.204 61.310,107.580 ZM76.767,63.733 C76.518,63.982 76.192,64.106 75.866,64.106 C75.540,64.106 75.214,63.982 74.966,63.733 L71.322,60.088 C70.825,59.590 70.825,58.784 71.322,58.286 C71.820,57.788 72.626,57.788 73.124,58.286 L76.767,61.931 C77.264,62.429 77.264,63.236 76.767,63.733 ZM81.505,50.486 L76.352,50.486 C75.649,50.486 75.079,49.916 75.079,49.212 C75.079,48.508 75.649,47.938 76.352,47.938 L81.505,47.938 C82.208,47.938 82.778,48.508 82.778,49.212 C82.778,49.916 82.208,50.486 81.505,50.486 ZM73.124,40.139 C72.875,40.387 72.549,40.512 72.223,40.512 C71.897,40.512 71.571,40.387 71.322,40.139 C70.825,39.641 70.825,38.834 71.322,38.337 L74.966,34.691 C75.463,34.194 76.269,34.194 76.767,34.691 C77.264,35.189 77.264,35.996 76.767,36.493 L73.124,40.139 ZM62.678,36.099 C61.975,36.099 61.405,35.528 61.405,34.825 L61.405,29.670 C61.405,28.966 61.975,28.395 62.678,28.395 C63.382,28.395 63.952,28.966 63.952,29.670 L63.952,34.825 C63.952,35.528 63.382,36.099 62.678,36.099 ZM52.285,40.512 C51.959,40.512 51.633,40.387 51.384,40.139 L47.741,36.493 C47.243,35.996 47.243,35.189 47.741,34.691 C48.238,34.194 49.044,34.194 49.542,34.691 L53.185,38.337 C53.682,38.834 53.682,39.641 53.185,40.139 C52.936,40.387 52.611,40.512 52.285,40.512 ZM53.185,58.286 C53.682,58.784 53.682,59.590 53.185,60.088 L49.542,63.733 C49.293,63.982 48.967,64.106 48.641,64.106 C48.315,64.106 47.989,63.982 47.741,63.733 C47.243,63.236 47.243,62.429 47.741,61.931 L51.384,58.286 C51.881,57.788 52.688,57.788 53.185,58.286 ZM49.429,49.212 C49.429,49.916 48.859,50.486 48.155,50.486 L43.003,50.486 C42.299,50.486 41.729,49.916 41.729,49.212 C41.729,48.508 42.299,47.938 43.003,47.938 L48.155,47.938 C48.859,47.938 49.429,48.508 49.429,49.212 Z"/>
</svg>