<svg 
 xmlns="http://www.w3.org/2000/svg"
 xmlns:xlink="http://www.w3.org/1999/xlink"
 width="58px" height="52px">
<path fill-rule="evenodd"  fill="rgb(124, 156, 224)"
 d="M56.429,8.115 C53.608,8.117 50.788,8.116 47.966,8.116 C47.843,8.116 47.718,8.123 47.609,8.126 C47.609,10.533 47.608,12.900 47.608,15.344 C48.229,15.335 48.874,15.317 49.519,15.316 C51.804,15.312 54.088,15.314 56.373,15.315 C57.120,15.316 57.441,15.635 57.444,16.382 C57.448,17.193 57.451,18.004 57.446,18.814 C57.434,20.465 56.276,21.609 54.627,21.608 C52.393,21.607 50.159,21.609 47.924,21.611 C47.814,21.611 47.704,21.618 47.537,21.624 C47.541,22.509 47.541,23.378 47.559,24.247 C47.561,24.316 47.689,24.423 47.775,24.445 C49.755,24.952 51.187,26.866 51.164,29.126 C51.105,34.838 51.153,40.550 51.143,46.262 C51.139,48.274 50.231,49.805 48.455,50.729 C46.731,51.627 44.988,51.495 43.382,50.401 C41.966,49.437 41.265,48.042 41.250,46.329 C41.234,44.333 41.245,42.337 41.245,40.341 C41.245,34.241 41.245,28.142 41.244,22.042 C41.244,21.918 41.238,21.794 41.233,21.613 C40.702,21.611 40.185,21.609 39.667,21.607 C38.867,21.604 38.544,21.269 38.546,20.466 C38.549,19.119 38.544,17.772 38.547,16.424 C38.549,15.623 38.860,15.314 39.655,15.312 C40.054,15.312 40.455,15.294 40.853,15.319 C41.165,15.339 41.256,15.235 41.254,14.922 C41.242,12.477 41.247,10.032 41.246,7.587 C41.246,6.464 41.240,5.342 41.248,4.219 C41.263,1.748 42.978,0.033 45.449,0.026 C48.058,0.018 50.668,0.018 53.277,0.027 C55.711,0.036 57.435,1.774 57.444,4.215 C57.448,5.175 57.448,6.135 57.446,7.096 C57.444,7.754 57.087,8.115 56.429,8.115 ZM43.044,26.533 C43.047,31.771 43.046,37.008 43.046,42.246 C43.046,43.593 43.039,44.940 43.046,46.287 C43.057,48.125 44.487,49.533 46.284,49.488 C47.922,49.446 49.390,48.109 49.362,46.076 C49.318,42.909 49.349,39.741 49.348,36.574 C49.347,33.993 49.357,31.412 49.342,28.830 C49.334,27.399 48.330,26.219 46.945,26.141 C45.667,26.069 44.380,26.154 42.976,26.171 C42.999,26.286 43.044,26.409 43.044,26.533 ZM45.687,24.268 C45.682,23.410 45.677,22.544 45.672,21.665 C44.822,21.664 43.947,21.664 43.148,21.664 C43.144,22.532 43.140,23.409 43.136,24.259 C43.970,24.262 44.837,24.265 45.687,24.268 ZM40.393,17.185 C40.392,18.020 40.392,18.888 40.392,19.796 C40.515,19.803 40.626,19.814 40.737,19.814 C44.107,19.814 47.477,19.814 50.847,19.813 C52.120,19.813 53.393,19.817 54.666,19.809 C55.168,19.805 55.592,19.516 55.614,19.085 C55.647,18.443 55.593,17.797 55.577,17.183 C50.529,17.183 45.455,17.184 40.393,17.185 ZM45.680,15.276 C45.677,12.905 45.674,10.532 45.670,8.170 C44.840,8.176 43.973,8.182 43.145,8.188 C43.140,10.543 43.136,12.915 43.132,15.249 C43.969,15.258 44.837,15.267 45.680,15.276 ZM55.630,3.896 C55.577,2.767 54.638,1.845 53.501,1.835 C50.732,1.812 47.962,1.811 45.193,1.833 C44.117,1.841 43.190,2.643 43.098,3.710 C43.025,4.559 43.132,5.423 43.156,6.180 C47.281,6.188 51.453,6.195 55.625,6.203 C55.629,5.465 55.667,4.679 55.630,3.896 ZM47.779,44.764 C48.669,45.662 48.666,47.075 47.770,47.945 C46.883,48.808 45.473,48.803 44.602,47.934 C43.722,47.057 43.732,45.628 44.623,44.743 C45.500,43.872 46.904,43.882 47.779,44.764 ZM45.885,46.658 C46.095,46.827 46.315,46.846 46.512,46.645 C46.694,46.459 46.697,46.233 46.520,46.047 C46.333,45.849 46.103,45.831 45.896,46.027 C45.688,46.223 45.713,46.440 45.885,46.658 ZM34.334,28.580 C34.035,28.589 33.735,28.582 33.320,28.582 C33.632,29.047 33.906,29.391 34.106,29.775 C34.253,30.058 34.386,30.392 34.386,30.703 C34.403,35.965 34.407,41.226 34.394,46.487 C34.388,49.228 32.276,51.340 29.599,51.323 C27.033,51.307 24.926,49.209 24.920,46.623 C24.908,41.748 24.916,36.873 24.915,31.998 C24.915,31.971 24.918,31.944 24.915,31.918 C24.783,30.788 24.975,29.751 25.778,28.885 C25.834,28.824 25.855,28.729 25.924,28.584 C25.568,28.584 25.266,28.593 24.965,28.582 C24.315,28.558 23.959,28.199 23.953,27.546 C23.943,26.667 23.943,25.788 23.953,24.908 C23.961,24.223 24.342,23.853 25.030,23.850 C26.096,23.845 27.163,23.848 28.229,23.847 C28.372,23.847 28.514,23.847 28.683,23.847 C28.692,23.669 28.704,23.539 28.704,23.409 C28.706,18.175 28.703,12.940 28.713,7.706 C28.714,7.343 28.618,7.077 28.347,6.833 C27.942,6.468 27.537,6.093 27.195,5.671 C27.001,5.431 26.835,5.094 26.824,4.795 C26.783,3.610 26.803,2.424 26.809,1.239 C26.812,0.543 27.180,0.175 27.871,0.173 C29.057,0.168 30.244,0.169 31.430,0.173 C32.111,0.175 32.498,0.547 32.504,1.236 C32.514,2.434 32.525,3.634 32.487,4.831 C32.478,5.108 32.326,5.425 32.142,5.641 C31.747,6.106 31.275,6.506 30.861,6.958 C30.732,7.099 30.619,7.321 30.619,7.506 C30.606,12.847 30.609,18.188 30.610,23.530 C30.610,23.620 30.625,23.710 30.637,23.849 C30.799,23.849 30.941,23.849 31.083,23.849 C32.150,23.849 33.216,23.843 34.283,23.850 C34.970,23.854 35.344,24.232 35.347,24.914 C35.351,25.794 35.351,26.673 35.346,27.552 C35.343,28.200 34.988,28.560 34.334,28.580 ZM26.817,46.328 C26.819,46.747 26.864,47.189 27.002,47.580 C27.446,48.845 28.810,49.621 30.086,49.389 C31.545,49.124 32.496,48.008 32.499,46.494 C32.507,41.353 32.502,36.212 32.495,31.072 C32.495,30.908 32.452,30.721 32.366,30.585 C31.989,29.989 31.600,29.399 31.187,28.828 C31.097,28.703 30.892,28.599 30.736,28.594 C30.017,28.570 29.296,28.567 28.577,28.595 C28.412,28.602 28.200,28.719 28.100,28.853 C27.735,29.345 27.386,29.851 27.078,30.379 C26.933,30.629 26.823,30.941 26.820,31.225 C26.801,33.769 26.809,36.313 26.809,38.857 C26.809,41.347 26.800,43.838 26.817,46.328 ZM30.600,2.093 C29.954,2.093 29.361,2.093 28.707,2.093 C28.707,2.728 28.761,3.318 28.694,3.894 C28.597,4.714 29.231,4.987 29.704,5.486 C29.889,5.275 30.042,5.108 30.187,4.934 C30.329,4.764 30.571,4.593 30.581,4.412 C30.626,3.647 30.600,2.878 30.600,2.093 ZM33.413,25.762 C30.894,25.762 28.407,25.762 25.873,25.762 C25.863,25.907 25.851,26.010 25.849,26.114 C25.837,26.694 25.838,26.694 26.432,26.694 C28.603,26.694 30.773,26.693 32.945,26.692 C33.099,26.692 33.254,26.692 33.413,26.692 C33.413,26.344 33.413,26.059 33.413,25.762 ZM15.944,20.638 C15.711,20.772 15.649,20.919 15.650,21.176 C15.656,29.595 15.657,38.015 15.653,46.435 C15.653,48.675 14.312,50.506 12.242,51.123 C9.240,52.018 6.193,49.781 6.164,46.632 C6.139,43.861 6.158,41.090 6.159,38.318 C6.159,32.590 6.158,26.861 6.167,21.133 C6.167,20.879 6.071,20.762 5.866,20.640 C2.167,18.445 0.251,15.190 0.510,10.900 C0.760,6.771 2.930,3.800 6.682,2.019 C7.387,1.684 8.059,2.159 8.061,2.971 C8.068,5.303 8.064,7.634 8.064,9.965 C8.064,10.149 8.064,10.333 8.064,10.587 C8.354,10.587 8.579,10.587 8.804,10.587 C10.284,10.587 11.764,10.574 13.244,10.596 C13.636,10.602 13.769,10.514 13.765,10.092 C13.742,7.788 13.753,5.483 13.753,3.178 C13.753,3.072 13.749,2.965 13.756,2.858 C13.802,2.123 14.442,1.728 15.123,2.014 C19.300,3.765 21.937,8.473 21.242,12.967 C20.714,16.373 18.924,18.921 15.944,20.638 ZM8.073,46.604 C8.073,46.918 8.130,47.246 8.235,47.541 C8.697,48.833 10.038,49.619 11.337,49.387 C12.791,49.128 13.750,48.002 13.751,46.493 C13.757,38.326 13.754,30.159 13.753,21.992 C13.753,21.866 13.733,21.741 13.719,21.573 C11.830,22.079 9.985,22.082 8.091,21.571 C8.079,21.734 8.065,21.838 8.065,21.943 C8.065,30.163 8.064,38.384 8.073,46.604 ZM15.657,4.532 C15.657,4.736 15.657,4.880 15.657,5.024 C15.656,7.114 15.658,9.205 15.654,11.296 C15.652,12.156 15.327,12.481 14.471,12.482 C12.085,12.486 9.700,12.485 7.314,12.483 C6.489,12.482 6.161,12.147 6.160,11.313 C6.159,9.209 6.160,7.105 6.159,5.001 C6.159,4.851 6.145,4.701 6.137,4.523 C3.584,6.101 1.660,9.685 2.601,13.530 C3.583,17.541 7.118,20.171 11.299,20.056 C15.121,19.951 18.550,16.988 19.286,13.189 C20.054,9.218 17.875,5.820 15.657,4.532 Z"/>
</svg>