<svg 
 xmlns="http://www.w3.org/2000/svg"
 xmlns:xlink="http://www.w3.org/1999/xlink"
 width="230px" height="115px">
<path fill-rule="evenodd"  fill="rgb(124, 156, 224)"
 d="M223.945,99.739 C221.117,99.740 218.820,97.434 218.830,94.603 C218.840,91.777 221.147,89.500 223.991,89.509 C226.774,89.518 229.062,91.816 229.064,94.607 C229.067,97.445 226.780,99.738 223.945,99.739 ZM223.905,92.064 C222.524,92.079 221.380,93.243 221.386,94.626 C221.393,96.019 222.526,97.168 223.911,97.186 C225.333,97.204 226.511,96.043 226.510,94.623 C226.509,93.205 225.331,92.048 223.905,92.064 ZM218.325,56.240 C216.770,58.350 215.215,60.459 213.656,62.566 C213.428,62.874 213.347,63.109 213.366,63.402 C213.390,63.772 213.384,64.143 213.378,64.502 C213.376,64.632 213.374,64.761 213.374,64.890 C213.369,65.816 212.935,66.247 212.008,66.247 C209.309,66.249 206.609,66.249 203.910,66.249 C203.335,66.249 202.760,66.249 202.185,66.249 L199.177,66.249 C195.237,66.249 191.294,66.249 187.352,66.248 C187.002,66.248 186.501,66.208 186.195,65.864 C185.978,65.620 185.899,65.272 185.954,64.802 C186.090,63.633 185.756,62.641 184.802,61.379 C182.537,58.383 180.275,55.307 178.088,52.332 C176.945,50.778 175.764,49.171 174.596,47.595 C174.171,47.022 174.130,46.489 174.464,45.868 C176.660,41.791 178.827,37.731 180.908,33.803 C181.220,33.212 181.663,32.949 182.343,32.949 C182.347,32.949 182.350,32.949 182.354,32.949 C185.433,32.961 188.563,32.959 191.591,32.958 L194.340,32.957 C194.784,32.957 195.146,32.590 195.147,32.140 L195.147,31.823 C195.150,30.195 195.152,28.512 195.139,26.857 C195.138,26.723 195.092,26.568 195.033,26.497 C193.671,24.880 193.198,23.043 193.625,21.033 L192.367,21.033 L188.243,21.033 C187.171,21.032 186.772,20.636 186.772,19.571 C186.771,18.648 186.771,17.726 186.771,16.791 L186.771,15.406 L189.074,15.406 L189.074,18.713 C189.133,18.718 189.189,18.721 189.242,18.721 L190.206,18.723 C191.588,18.726 193.016,18.729 194.420,18.709 C194.549,18.707 194.744,18.617 194.828,18.519 C196.119,17.023 197.834,16.200 199.658,16.200 C199.664,16.200 199.670,16.200 199.675,16.200 C201.495,16.205 203.199,17.031 204.474,18.524 C204.573,18.640 204.656,18.696 204.686,18.709 C206.224,18.724 207.734,18.723 209.332,18.722 L210.212,18.722 L210.212,15.401 L212.537,15.401 L212.538,17.405 C212.538,18.177 212.539,18.950 212.535,19.723 C212.531,20.577 212.079,21.029 211.227,21.032 C209.930,21.035 208.634,21.034 207.337,21.034 L205.685,21.034 C205.897,22.077 205.883,22.996 205.644,23.898 C205.408,24.788 204.997,25.595 204.387,26.366 C204.264,26.522 204.176,26.745 204.174,26.908 C204.154,28.347 204.157,29.813 204.160,31.230 L204.161,32.135 C204.162,32.588 204.521,32.957 204.962,32.957 L207.750,32.958 C210.765,32.960 213.883,32.962 216.948,32.947 C217.639,32.941 218.093,33.221 218.424,33.845 C220.710,38.166 222.801,42.082 224.815,45.819 C225.173,46.483 225.133,47.026 224.681,47.635 C222.558,50.500 220.406,53.418 218.325,56.240 ZM211.052,63.896 L211.052,62.324 C210.299,62.621 209.682,63.227 209.448,63.896 L211.052,63.896 ZM188.285,63.926 L189.857,63.926 C189.569,63.173 188.971,62.564 188.285,62.324 L188.285,63.926 ZM188.266,59.877 C190.378,60.446 191.736,61.805 192.308,63.919 L207.001,63.919 C207.578,61.799 208.934,60.440 211.037,59.873 L211.037,58.581 C208.925,58.011 207.567,56.656 206.995,54.547 L192.304,54.547 C191.734,56.662 190.377,58.019 188.266,58.586 L188.266,59.877 ZM211.019,52.178 L211.019,51.205 L188.269,51.205 L188.269,52.178 L211.019,52.178 ZM188.276,54.552 L188.276,56.129 C189.036,55.820 189.646,55.212 189.861,54.552 L188.276,54.552 ZM209.428,54.536 C209.693,55.244 210.425,55.942 211.022,56.158 L211.022,54.536 L209.428,54.536 ZM193.572,35.268 L190.967,35.268 C188.381,35.270 185.706,35.271 183.075,35.259 C183.072,35.259 183.069,35.259 183.066,35.259 C182.809,35.259 182.721,35.314 182.599,35.545 C180.535,39.447 178.662,42.958 176.871,46.277 C176.739,46.522 176.748,46.619 176.924,46.857 C178.730,49.285 180.554,51.761 182.319,54.155 L185.896,59.007 C185.884,58.729 185.824,58.466 185.668,58.198 C184.386,56.000 183.102,53.755 181.860,51.583 C181.075,50.210 180.290,48.837 179.501,47.467 C179.170,46.892 179.186,46.372 179.551,45.830 C181.087,43.555 182.685,41.157 184.301,38.703 C184.636,38.193 185.069,37.970 185.697,37.973 C187.606,37.986 189.548,37.984 191.426,37.982 C192.098,37.981 192.769,37.981 193.441,37.981 L193.572,37.981 L193.572,35.268 ZM199.667,32.791 C199.657,32.791 199.647,32.790 199.637,32.790 C198.628,32.790 197.671,33.183 196.940,33.897 C196.202,34.618 195.791,35.571 195.784,36.581 C195.768,38.684 197.522,40.476 199.613,40.492 L199.613,40.492 C199.624,40.493 199.634,40.493 199.645,40.493 C200.657,40.493 201.620,40.096 202.357,39.373 C203.102,38.643 203.516,37.680 203.524,36.661 C203.539,34.543 201.809,32.807 199.667,32.791 ZM201.849,30.843 L201.849,28.170 C200.096,28.689 199.370,28.736 197.489,28.180 L197.489,30.837 C198.207,30.575 198.924,30.444 199.646,30.444 C200.372,30.444 201.104,30.577 201.849,30.843 ZM199.663,18.521 C199.656,18.521 199.649,18.521 199.643,18.521 C198.643,18.521 197.686,18.921 196.946,19.648 C196.201,20.380 195.789,21.332 195.784,22.330 C195.774,24.484 197.459,26.194 199.620,26.223 C199.638,26.223 199.655,26.224 199.672,26.224 C200.684,26.224 201.640,25.830 202.372,25.111 C203.111,24.385 203.520,23.423 203.524,22.403 C203.532,20.311 201.764,18.533 199.663,18.521 ZM204.830,40.303 C204.733,40.303 204.573,40.378 204.508,40.454 C203.175,41.980 201.453,42.821 199.658,42.822 C199.657,42.822 199.655,42.822 199.653,42.822 C197.860,42.822 196.137,41.983 194.803,40.460 C194.734,40.381 194.575,40.304 194.481,40.303 C193.119,40.295 191.754,40.290 190.396,40.290 C188.993,40.290 187.596,40.295 186.217,40.304 C186.140,40.304 185.988,40.384 185.946,40.447 C184.481,42.604 183.144,44.607 181.860,46.570 C181.827,46.623 181.819,46.811 181.856,46.879 C182.323,47.739 182.820,48.603 183.301,49.438 C183.462,49.718 183.623,49.999 183.784,50.279 L185.934,54.038 L185.934,53.633 C185.933,52.495 185.933,51.357 185.935,50.219 C185.936,49.309 186.367,48.867 187.251,48.867 C195.519,48.865 203.788,48.865 212.056,48.867 C212.941,48.867 213.372,49.309 213.373,50.218 C213.375,51.032 213.375,51.846 213.375,52.660 C213.375,53.114 213.374,53.569 213.375,54.023 L213.480,53.840 C214.802,51.532 216.169,49.144 217.498,46.788 C217.505,46.757 217.485,46.625 217.451,46.574 C216.055,44.452 214.679,42.393 213.362,40.452 C213.318,40.388 213.168,40.304 213.094,40.304 C210.410,40.286 207.629,40.286 204.830,40.303 ZM222.470,46.355 C220.588,42.839 218.641,39.204 216.699,35.531 C216.580,35.306 216.495,35.259 216.212,35.259 C213.534,35.270 210.810,35.269 208.177,35.268 L205.734,35.268 L205.734,37.981 L205.936,37.981 C206.600,37.981 207.265,37.981 207.930,37.982 C209.797,37.984 211.728,37.985 213.626,37.971 C213.632,37.971 213.638,37.971 213.644,37.971 C214.252,37.971 214.676,38.202 215.015,38.718 C216.290,40.650 217.975,43.197 219.709,45.755 C220.114,46.353 220.133,46.900 219.770,47.528 C218.897,49.038 218.018,50.578 217.168,52.068 C216.067,53.996 214.928,55.990 213.790,57.942 C213.572,58.316 213.442,58.668 213.394,59.034 L215.140,56.665 C217.544,53.402 220.030,50.028 222.483,46.715 C222.573,46.594 222.580,46.559 222.470,46.355 ZM199.663,55.565 C199.666,55.565 199.668,55.565 199.670,55.565 C201.678,55.568 203.317,57.202 203.323,59.207 C203.326,60.188 202.947,61.113 202.255,61.812 C201.562,62.511 200.642,62.897 199.664,62.900 C199.660,62.900 199.657,62.900 199.654,62.900 C198.677,62.900 197.757,62.519 197.064,61.827 C196.368,61.132 195.985,60.209 195.986,59.227 C195.987,58.245 196.370,57.324 197.065,56.633 C197.759,55.944 198.681,55.565 199.663,55.565 ZM198.697,60.187 C198.958,60.447 199.299,60.588 199.669,60.588 C200.395,60.583 201.009,59.966 201.010,59.240 L201.010,59.240 C201.011,58.874 200.867,58.530 200.605,58.271 C200.348,58.016 200.010,57.875 199.651,57.875 C199.647,57.875 199.643,57.875 199.639,57.876 C198.903,57.882 198.301,58.487 198.297,59.223 C198.296,59.586 198.437,59.928 198.697,60.187 ZM176.567,59.852 C175.969,60.374 175.411,60.860 174.863,61.338 C174.317,60.735 173.774,60.135 173.160,59.456 C173.672,59.006 174.323,58.434 175.011,57.830 C175.549,58.529 176.046,59.174 176.567,59.852 ZM169.455,31.182 C168.326,30.013 167.202,28.848 166.066,27.672 C164.812,28.937 163.659,30.100 162.478,31.292 C161.745,30.580 161.176,30.027 160.584,29.451 C161.777,28.300 162.943,27.176 164.108,26.052 C162.820,24.799 161.647,23.659 160.443,22.488 C161.237,21.797 161.849,21.265 162.523,20.679 C163.505,21.705 164.638,22.890 165.850,24.156 C167.116,22.845 168.255,21.666 169.429,20.449 C170.068,21.127 170.610,21.704 171.153,22.280 C170.027,23.387 168.860,24.534 167.596,25.776 C168.950,27.034 170.150,28.149 171.379,29.291 C170.645,30.012 170.068,30.580 169.455,31.182 ZM157.084,50.703 C154.235,50.708 151.936,48.433 151.932,45.604 C151.927,42.763 154.213,40.473 157.051,40.473 C159.884,40.474 162.167,42.768 162.165,45.611 C162.163,48.394 159.865,50.698 157.084,50.703 ZM157.130,43.027 C155.711,42.986 154.507,44.134 154.486,45.546 C154.466,46.933 155.588,48.110 156.966,48.147 C158.395,48.186 159.585,47.052 159.609,45.630 C159.631,44.246 158.509,43.067 157.130,43.027 ZM176.078,72.048 C175.672,72.751 175.268,73.452 174.804,74.255 C174.032,73.716 173.301,73.207 172.509,72.654 C173.098,71.984 173.638,71.371 174.197,70.736 C174.829,71.177 175.413,71.585 176.078,72.048 ZM170.539,70.421 C170.187,69.412 169.871,68.505 169.526,67.513 C170.471,67.385 171.274,67.276 172.082,67.166 C172.302,67.791 172.511,68.383 172.759,69.087 C172.110,69.477 171.418,69.893 170.539,70.421 ZM173.257,63.190 C172.937,63.825 172.631,64.432 172.280,65.128 C171.525,64.902 170.754,64.673 169.815,64.393 C170.276,63.455 170.671,62.653 171.116,61.747 C171.874,62.258 172.545,62.710 173.257,63.190 ZM161.933,69.311 C164.576,71.708 165.671,76.141 162.765,80.083 L166.750,80.082 C169.642,80.082 172.536,80.081 175.428,80.082 C176.822,80.082 177.316,80.568 177.316,81.939 L177.318,83.122 C177.319,84.202 177.320,85.318 177.314,86.416 C177.308,87.544 176.773,88.070 175.630,88.072 C173.143,88.075 170.655,88.075 168.168,88.074 L164.517,88.073 L164.517,111.689 C164.517,113.201 164.066,113.662 162.586,113.662 L161.451,113.662 C159.675,113.663 157.899,113.663 156.123,113.663 C154.305,113.663 152.488,113.663 150.671,113.662 C149.340,113.661 148.845,113.163 148.845,111.825 C148.844,108.348 148.844,104.871 148.844,101.394 L148.844,97.031 L148.019,97.030 C147.314,97.030 146.626,97.030 145.939,97.031 C145.061,97.031 144.481,96.965 144.134,96.619 C143.792,96.277 143.725,95.715 143.725,94.860 C143.725,92.222 143.725,89.584 143.724,86.947 C143.724,82.970 146.491,80.147 150.454,80.082 C150.488,80.081 150.523,80.079 150.560,80.077 C147.579,75.887 148.880,71.367 151.759,69.020 C154.718,66.608 159.092,66.733 161.933,69.311 ZM150.198,82.966 C148.219,82.971 146.640,84.567 146.603,86.600 C146.592,87.209 146.594,87.830 146.597,88.430 C146.598,88.698 146.599,88.967 146.599,89.235 L146.599,94.104 L148.878,94.104 L148.878,86.526 L151.740,86.526 L151.740,110.727 L155.270,110.727 L155.270,96.770 L158.119,96.770 L158.119,110.774 L161.642,110.774 L161.642,104.540 C161.642,98.714 161.642,92.887 161.643,87.060 C161.644,85.671 162.119,85.202 163.528,85.201 C165.939,85.199 168.349,85.199 170.760,85.199 L174.389,85.199 L174.389,82.975 C174.388,82.975 174.387,82.975 174.387,82.974 C174.308,82.965 174.246,82.958 174.188,82.958 C172.228,82.958 170.268,82.957 168.308,82.956 C162.372,82.954 156.234,82.951 150.198,82.966 ZM151.720,75.041 C151.691,77.783 153.880,80.044 156.601,80.082 C157.933,80.098 159.200,79.592 160.162,78.649 C161.109,77.723 161.634,76.499 161.643,75.203 C161.661,72.445 159.471,70.183 156.761,70.163 C156.749,70.163 156.735,70.163 156.723,70.163 C153.989,70.163 151.749,72.343 151.720,75.041 ZM137.254,113.903 C130.328,113.903 123.400,113.903 116.474,113.903 C98.955,113.903 81.437,113.903 63.918,113.902 C62.584,113.902 62.040,113.361 62.040,112.034 C62.039,98.603 62.040,85.173 62.042,71.742 C62.042,70.472 62.595,69.930 63.890,69.928 C65.703,69.926 67.516,69.926 69.329,69.927 L72.280,69.927 L72.280,55.896 C72.280,55.267 72.278,54.639 72.275,54.011 C72.268,52.295 72.260,50.520 72.310,48.775 C72.326,48.183 72.616,47.486 73.013,47.080 C76.275,43.749 79.530,40.496 82.688,37.411 C83.122,36.988 83.851,36.691 84.461,36.689 C100.306,36.659 116.416,36.660 131.997,36.661 L137.405,36.661 C138.776,36.661 139.310,37.199 139.310,38.581 C139.311,62.991 139.311,87.401 139.311,111.810 C139.311,113.414 138.830,113.903 137.254,113.903 ZM131.064,87.741 C128.721,88.529 126.388,88.521 123.952,87.716 L123.953,88.345 C123.953,89.548 124.046,89.674 125.187,90.031 C126.727,90.513 128.212,90.538 129.601,90.107 C131.248,89.595 131.327,89.570 131.064,87.741 ZM131.164,82.825 C131.162,82.749 131.160,82.672 131.159,82.593 C128.760,83.399 126.394,83.399 123.947,82.594 C123.945,82.670 123.943,82.744 123.941,82.817 C123.929,83.201 123.919,83.533 123.970,83.850 C124.011,84.113 124.177,84.415 124.317,84.485 C126.466,85.555 128.632,85.562 130.754,84.503 C130.918,84.421 131.106,84.157 131.134,83.969 C131.186,83.612 131.175,83.230 131.164,82.825 ZM123.951,92.863 L123.951,93.461 C123.950,94.664 124.043,94.791 125.186,95.152 C126.555,95.584 127.971,95.635 129.393,95.302 C131.047,94.916 131.195,94.722 131.155,92.996 C131.154,92.950 131.151,92.904 131.147,92.856 C128.423,93.559 128.233,93.552 123.951,92.863 ZM123.970,109.446 C124.012,109.705 124.181,110.006 124.324,110.078 C126.464,111.145 128.630,111.149 130.763,110.091 C130.927,110.010 131.112,109.779 131.131,109.634 C131.179,109.252 131.170,108.850 131.161,108.424 C131.159,108.345 131.157,108.265 131.156,108.184 C128.773,108.988 126.407,108.992 123.947,108.194 C123.945,108.269 123.943,108.342 123.941,108.415 C123.929,108.798 123.919,109.130 123.970,109.446 ZM131.163,103.290 C131.162,103.216 131.160,103.141 131.159,103.065 C128.777,103.871 126.412,103.874 123.948,103.076 C123.946,103.149 123.944,103.221 123.942,103.291 C123.930,103.674 123.920,104.005 123.971,104.323 C124.011,104.574 124.177,104.863 124.349,104.981 C125.845,106.006 129.341,105.996 130.799,104.962 C130.962,104.846 131.117,104.609 131.137,104.444 C131.181,104.081 131.172,103.697 131.163,103.290 ZM123.970,99.149 C124.022,99.449 124.197,99.777 124.344,99.851 C126.488,100.921 128.654,100.920 130.782,99.847 C130.937,99.769 131.115,99.533 131.134,99.380 C131.182,99.001 131.173,98.603 131.163,98.182 C131.161,98.106 131.160,98.029 131.158,97.951 C128.733,98.751 126.367,98.750 123.946,97.948 C123.944,98.014 123.942,98.079 123.939,98.144 C123.927,98.517 123.916,98.840 123.970,99.149 ZM123.970,78.586 C124.055,78.979 124.245,79.336 124.412,79.417 C126.513,80.435 128.634,80.434 130.717,79.414 C130.901,79.324 131.107,79.069 131.132,78.901 C131.187,78.529 131.176,78.133 131.165,77.713 C131.163,77.634 131.160,77.553 131.159,77.471 C128.760,78.280 126.394,78.282 123.945,77.477 C123.943,77.538 123.940,77.598 123.938,77.657 C123.923,78.006 123.909,78.307 123.970,78.586 ZM131.073,74.012 C130.474,73.329 128.921,72.907 127.182,72.973 C125.674,73.031 124.468,73.430 124.036,74.005 C124.438,74.512 125.510,74.895 126.841,74.997 C128.654,75.136 130.348,74.735 131.073,74.012 ZM114.879,110.471 C116.410,110.987 117.919,111.023 119.361,110.577 C121.001,110.071 121.079,110.047 120.828,108.213 C118.502,108.998 116.168,108.991 113.713,108.192 L113.713,108.200 C113.713,108.423 113.713,108.619 113.712,108.816 C113.709,110.030 113.753,110.092 114.879,110.471 ZM113.712,103.740 C113.711,104.909 113.754,104.968 114.846,105.341 C116.339,105.850 117.875,105.889 119.412,105.455 C120.853,105.048 120.923,104.957 120.918,103.503 C120.917,103.370 120.917,103.236 120.917,103.066 C118.535,103.869 116.171,103.873 113.712,103.076 L113.712,103.740 ZM113.713,97.952 L113.713,98.006 L113.713,98.633 C113.714,99.791 113.757,99.850 114.855,100.227 C116.280,100.716 117.766,100.767 119.272,100.378 C120.848,99.971 120.940,99.850 120.916,98.221 C120.915,98.139 120.911,98.057 120.906,97.957 C118.480,98.752 116.120,98.750 113.713,97.952 ZM120.824,94.461 C120.397,93.938 119.297,93.550 117.948,93.457 C116.439,93.353 114.613,93.627 113.792,94.455 C114.336,95.102 115.823,95.522 117.518,95.492 C119.076,95.463 120.369,95.055 120.824,94.461 ZM65.113,110.826 L105.523,110.826 L105.523,108.843 L65.113,108.843 L65.113,110.826 ZM65.112,105.697 L105.493,105.697 L105.493,103.707 L65.112,103.707 L65.112,105.697 ZM105.512,95.480 L105.512,92.478 C104.064,92.897 102.886,94.077 102.517,95.480 L105.512,95.480 ZM65.110,100.576 L105.492,100.576 L105.492,98.592 L65.110,98.592 L65.110,100.576 ZM65.075,92.923 C65.075,93.703 65.075,94.483 65.076,95.263 C65.076,95.329 65.081,95.396 65.086,95.471 L68.113,95.471 C67.712,94.019 66.345,92.679 65.075,92.495 L65.075,92.923 ZM65.109,73.009 L65.109,76.019 C65.721,75.895 66.505,75.401 67.145,74.719 C67.693,74.134 68.043,73.513 68.115,73.009 L65.109,73.009 ZM71.340,72.990 C70.509,76.288 68.413,78.384 65.107,79.225 L65.107,89.248 C68.413,90.085 70.508,92.181 71.341,95.483 L99.271,95.483 C100.393,91.878 101.889,90.384 105.526,89.234 L105.526,79.227 C102.218,78.385 100.121,76.288 99.288,72.990 L71.340,72.990 ZM105.501,75.995 L105.501,72.981 L102.487,72.981 C102.646,73.704 103.237,74.582 104.031,75.247 C104.552,75.683 105.083,75.951 105.501,75.995 ZM82.519,46.146 C82.519,44.787 82.519,43.455 82.518,42.125 L77.793,46.842 L82.519,46.842 L82.519,46.146 ZM136.223,39.755 L85.553,39.755 L85.554,41.990 C85.555,44.077 85.556,46.142 85.551,48.207 C85.548,49.326 84.959,49.921 83.849,49.927 C82.569,49.934 81.267,49.933 80.010,49.931 C79.476,49.931 78.947,49.932 78.408,49.930 L75.353,49.930 L75.353,69.927 L106.434,69.928 C107.205,69.927 107.793,70.001 108.156,70.362 C108.519,70.723 108.593,71.308 108.593,72.075 L108.593,110.830 L110.792,110.830 C110.782,110.679 110.771,110.529 110.759,110.381 C110.721,109.874 110.685,109.395 110.683,108.903 C110.679,107.312 110.682,105.720 110.685,104.129 C110.691,101.160 110.697,98.090 110.655,95.073 C110.632,93.393 111.357,92.191 112.874,91.395 C114.582,90.499 116.482,90.202 118.683,90.487 C119.260,90.562 119.815,90.695 120.402,90.835 C120.572,90.876 120.744,90.917 120.917,90.957 L120.917,90.334 C120.917,88.893 120.919,87.453 120.921,86.012 C120.925,82.214 120.930,78.286 120.902,74.423 C120.891,72.929 121.502,71.835 122.719,71.173 C125.937,69.422 129.192,69.423 132.392,71.176 C133.599,71.838 134.209,72.932 134.206,74.427 C134.185,83.008 134.187,91.732 134.189,100.169 C134.190,102.809 134.190,105.450 134.190,108.090 L134.190,110.824 L136.223,110.824 L136.223,39.755 ZM121.174,67.842 C121.173,67.842 121.171,67.842 121.170,67.842 C117.688,67.842 114.412,66.486 111.945,64.024 C109.477,61.561 108.118,58.288 108.118,54.810 C108.118,51.329 109.476,48.057 111.942,45.595 C114.407,43.135 117.683,41.780 121.167,41.780 C121.169,41.780 121.170,41.780 121.171,41.780 C124.647,41.781 127.917,43.142 130.378,45.612 C132.839,48.083 134.193,51.363 134.190,54.848 C134.186,62.011 128.346,67.840 121.174,67.842 ZM119.618,46.912 C119.626,46.267 119.635,45.602 119.637,44.933 C115.860,45.674 113.344,47.650 111.950,50.966 C110.556,54.279 110.941,57.557 113.094,60.711 C113.558,60.244 114.018,59.772 114.464,59.314 C115.694,58.050 116.857,56.856 118.128,55.727 C119.306,54.680 119.768,53.561 119.674,51.984 C119.574,50.311 119.595,48.660 119.618,46.912 ZM122.736,45.024 L122.736,53.265 L130.968,53.265 C130.444,48.739 126.300,45.265 122.736,45.024 ZM129.646,56.328 C126.998,56.328 124.496,56.327 121.953,56.338 C121.865,56.339 121.726,56.406 121.643,56.488 C119.825,58.282 118.051,60.047 116.172,61.914 L115.225,62.855 C118.566,65.113 121.996,65.439 125.423,63.823 C128.484,62.379 130.368,59.859 131.026,56.329 L129.646,56.328 ZM104.998,52.640 C101.059,56.579 97.119,60.518 93.179,64.456 C92.575,65.059 92.150,65.306 91.713,65.306 C91.712,65.306 91.710,65.306 91.708,65.306 C91.271,65.304 90.845,65.055 90.237,64.446 L85.286,59.485 L79.859,65.046 L77.835,62.769 L77.973,62.610 C77.989,62.592 78.008,62.568 78.032,62.539 C78.107,62.448 78.220,62.309 78.348,62.182 C80.212,60.314 82.078,58.448 83.947,56.585 C84.973,55.563 85.671,55.571 86.715,56.616 C87.913,57.815 89.108,59.016 90.300,60.214 L91.612,61.531 L103.498,49.647 L105.583,52.015 L105.363,52.252 C105.274,52.350 105.139,52.498 104.998,52.640 ZM85.328,90.872 C85.326,90.872 85.325,90.872 85.323,90.872 C81.662,90.872 78.683,87.903 78.680,84.250 C78.677,80.589 81.648,77.608 85.302,77.604 C85.304,77.604 85.306,77.604 85.308,77.604 C88.969,77.604 91.949,80.572 91.953,84.224 C91.955,85.994 91.265,87.661 90.012,88.919 C88.759,90.177 87.095,90.871 85.328,90.872 ZM85.332,80.637 C85.328,80.637 85.324,80.637 85.320,80.637 C83.384,80.637 81.734,82.259 81.714,84.184 C81.704,85.152 82.079,86.070 82.770,86.769 C83.452,87.458 84.350,87.838 85.299,87.839 C85.300,87.839 85.301,87.839 85.302,87.839 C86.263,87.839 87.170,87.461 87.856,86.774 C88.544,86.086 88.921,85.177 88.919,84.214 C88.914,82.282 87.272,80.644 85.332,80.637 ZM97.598,8.889 C97.000,9.002 96.300,8.942 95.397,8.703 C95.080,8.619 94.996,8.655 94.801,8.834 C93.602,9.933 85.343,18.163 76.598,26.876 C67.938,35.506 59.046,44.366 55.761,47.550 C56.497,49.208 56.108,51.108 54.718,52.376 C53.296,53.673 51.181,53.838 49.573,52.776 C47.904,51.674 47.241,49.684 47.923,47.826 C48.027,47.544 48.013,47.465 47.822,47.258 C45.030,44.239 42.212,41.165 39.446,38.122 C39.268,37.926 39.168,37.895 38.852,37.941 C38.440,38.002 38.028,37.992 37.630,37.983 C37.362,37.977 37.108,37.971 36.857,37.986 C36.389,38.013 36.284,38.083 36.262,38.104 C29.602,45.393 22.872,52.796 16.259,60.106 C16.204,60.169 16.152,60.443 16.200,60.592 C16.783,62.394 16.277,64.167 14.846,65.335 C14.096,65.948 13.165,66.260 12.225,66.260 C11.479,66.260 10.726,66.063 10.053,65.664 C8.515,64.753 7.729,62.977 8.051,61.139 C8.078,60.989 7.988,60.714 7.909,60.647 C6.048,59.073 4.143,57.486 2.301,55.951 L0.907,54.789 L0.907,50.441 L1.562,50.983 C4.575,53.479 7.338,55.779 10.009,58.015 C10.219,58.190 10.352,58.211 10.724,58.128 C11.248,58.012 11.783,57.994 12.301,57.978 C12.605,57.968 12.893,57.958 13.180,57.930 C13.638,57.885 13.754,57.808 13.782,57.777 C17.558,53.644 21.390,49.435 25.097,45.364 C27.983,42.194 30.870,39.024 33.759,35.856 C33.938,35.660 33.949,35.585 33.842,35.284 C33.373,33.960 33.564,32.552 34.365,31.420 C35.166,30.290 36.434,29.641 37.827,29.645 C39.196,29.647 40.484,30.318 41.274,31.440 C42.065,32.564 42.255,33.948 41.795,35.236 C41.676,35.569 41.719,35.678 41.953,35.931 C44.721,38.928 47.502,41.963 50.219,44.951 C50.451,45.206 50.548,45.240 50.831,45.163 C51.682,44.930 52.532,44.980 53.302,45.248 C56.617,42.042 66.204,32.494 74.816,23.915 C83.345,15.419 91.401,7.394 92.611,6.278 C92.665,6.226 92.734,5.988 92.705,5.857 C92.163,3.369 93.539,1.160 95.976,0.605 C98.182,0.103 100.412,1.580 100.948,3.897 C101.198,4.979 100.994,6.096 100.374,7.044 C99.737,8.018 98.751,8.673 97.598,8.889 ZM51.917,50.115 C52.380,50.099 52.780,49.680 52.773,49.219 C52.766,48.751 52.363,48.356 51.893,48.356 C51.893,48.356 51.892,48.356 51.892,48.356 C51.653,48.356 51.427,48.454 51.257,48.633 C51.088,48.810 51.001,49.039 51.012,49.276 C51.035,49.747 51.449,50.133 51.917,50.115 ZM38.694,33.836 C38.670,33.369 38.251,32.989 37.781,33.001 C37.311,33.015 36.923,33.423 36.933,33.891 C36.942,34.353 37.356,34.760 37.818,34.761 C37.819,34.761 37.819,34.761 37.820,34.761 C38.045,34.761 38.271,34.659 38.441,34.480 C38.614,34.300 38.706,34.065 38.694,33.836 ZM11.622,62.669 C11.799,62.835 12.031,62.922 12.260,62.909 L12.260,62.909 C12.731,62.882 13.114,62.464 13.095,61.996 C13.077,61.547 12.660,61.148 12.214,61.148 C12.207,61.148 12.200,61.148 12.193,61.148 C11.722,61.161 11.329,61.566 11.334,62.034 C11.336,62.269 11.441,62.500 11.622,62.669 ZM97.437,4.159 C97.268,3.981 97.036,3.879 96.800,3.878 C96.799,3.878 96.797,3.878 96.796,3.878 C96.329,3.878 95.929,4.274 95.921,4.743 C95.913,5.196 96.322,5.622 96.778,5.638 C96.787,5.638 96.796,5.638 96.805,5.638 C97.261,5.638 97.660,5.259 97.682,4.798 C97.693,4.564 97.606,4.337 97.437,4.159 ZM33.507,12.032 C33.503,12.032 33.500,12.032 33.496,12.032 C32.016,12.032 30.626,11.463 29.582,10.430 C28.534,9.393 27.956,8.010 27.953,6.534 C27.951,5.052 28.524,3.661 29.567,2.618 C30.607,1.576 31.994,1.003 33.472,1.003 C33.472,1.003 33.472,1.003 33.473,1.003 C34.950,1.003 36.337,1.579 37.376,2.624 C38.416,3.668 38.988,5.059 38.987,6.541 C38.985,9.563 36.527,12.026 33.507,12.032 ZM33.540,4.356 C33.519,4.356 33.498,4.356 33.477,4.356 C32.919,4.356 32.389,4.570 31.977,4.964 C31.554,5.370 31.316,5.908 31.308,6.481 C31.291,7.641 32.248,8.646 33.398,8.677 C33.988,8.694 34.541,8.478 34.964,8.072 C35.384,7.670 35.621,7.131 35.630,6.553 C35.650,5.396 34.692,4.390 33.540,4.356 ZM13.681,32.899 L10.297,29.393 L6.717,33.004 L4.244,30.599 L7.767,27.200 L4.086,23.620 L6.782,21.276 L10.085,24.728 L13.667,21.019 L15.947,23.440 L12.409,26.917 L16.192,30.432 L13.681,32.899 ZM9.163,114.022 L5.923,114.022 L5.923,73.647 L9.163,73.647 L9.163,114.022 ZM18.161,113.977 L14.872,113.977 L14.872,72.372 L18.161,72.372 L18.161,113.977 ZM27.078,114.005 L23.818,114.005 L23.818,59.550 L27.078,59.550 L27.078,114.005 ZM36.042,114.023 L32.800,114.023 L32.800,49.337 L36.042,49.337 L36.042,114.023 ZM45.000,114.021 L41.762,114.021 L41.762,53.178 L45.000,53.178 L45.000,114.021 ZM53.968,114.002 L50.712,114.002 L50.712,62.105 L53.968,62.105 L53.968,114.002 ZM173.920,107.887 C173.150,108.228 172.411,108.556 171.552,108.936 C171.219,108.146 170.897,107.384 170.555,106.571 C171.389,106.215 172.090,105.916 172.864,105.586 C173.219,106.358 173.546,107.072 173.920,107.887 ZM178.586,105.580 C177.818,105.981 177.097,106.358 176.290,106.779 C175.909,106.015 175.544,105.281 175.153,104.497 C175.918,104.100 176.613,103.739 177.370,103.347 C177.788,104.115 178.175,104.825 178.586,105.580 ZM178.268,73.137 C179.065,73.467 179.789,73.768 180.560,74.087 C180.244,74.897 179.950,75.652 179.636,76.458 C178.816,76.118 178.065,75.807 177.218,75.456 C177.593,74.629 177.917,73.914 178.268,73.137 ZM183.065,102.867 C182.338,103.334 181.650,103.776 180.868,104.278 C180.424,103.545 179.995,102.835 179.544,102.089 C180.252,101.641 180.915,101.221 181.644,100.759 C182.134,101.487 182.588,102.159 183.065,102.867 ZM182.959,74.975 C183.766,75.292 184.523,75.589 185.390,75.929 C185.055,76.712 184.739,77.448 184.388,78.268 C183.599,77.959 182.871,77.675 182.071,77.362 C182.376,76.540 182.659,75.781 182.959,74.975 ZM187.264,99.710 C186.572,100.263 185.913,100.790 185.218,101.345 C184.705,100.664 184.214,100.012 183.686,99.312 C184.332,98.794 184.948,98.301 185.618,97.764 C186.177,98.425 186.702,99.044 187.264,99.710 ZM186.547,79.337 C186.960,78.633 187.368,77.937 187.840,77.131 C188.620,77.682 189.324,78.178 190.079,78.711 C189.507,79.419 188.995,80.053 188.478,80.693 C187.831,80.239 187.227,79.815 186.547,79.337 ZM191.124,96.098 C190.434,96.688 189.795,97.235 189.112,97.819 C188.633,97.314 188.086,96.738 187.507,96.127 C188.116,95.581 188.702,95.055 189.347,94.478 C189.811,94.901 190.393,95.432 191.124,96.098 ZM191.838,90.513 C192.594,90.820 193.345,91.125 194.199,91.472 C193.736,92.317 193.310,93.094 192.842,93.948 C192.085,93.428 191.416,92.968 190.737,92.501 C191.112,91.824 191.457,91.201 191.838,90.513 ZM190.196,82.325 C190.793,81.792 191.395,81.254 192.096,80.628 C192.644,81.390 193.161,82.107 193.753,82.930 C192.978,83.357 192.273,83.744 191.506,84.166 C191.051,83.526 190.654,82.968 190.196,82.325 ZM194.965,88.608 C194.050,88.525 193.251,88.453 192.382,88.374 C192.382,87.660 192.382,86.981 192.382,86.218 C193.084,86.060 193.847,85.888 194.809,85.671 C194.861,86.659 194.910,87.569 194.965,88.608 ZM201.035,101.326 C202.143,102.455 203.291,103.624 204.516,104.872 C205.767,103.578 206.906,102.399 208.089,101.175 C208.708,101.871 209.235,102.463 209.759,103.052 C208.677,104.118 207.511,105.265 206.200,106.557 C207.565,107.856 208.737,108.972 209.939,110.116 C209.296,110.741 208.715,111.306 208.110,111.895 C206.990,110.740 205.864,109.577 204.728,108.405 C203.474,109.674 202.323,110.838 201.120,112.055 C200.456,111.309 199.916,110.703 199.323,110.036 C200.393,108.978 201.560,107.825 202.850,106.550 C201.580,105.350 200.388,104.224 199.163,103.065 C199.837,102.439 200.419,101.899 201.035,101.326 ZM209.477,82.272 C208.395,81.174 207.258,80.021 206.121,78.867 C204.877,80.128 203.729,81.294 202.530,82.510 C201.855,81.748 201.317,81.140 200.694,80.437 C201.777,79.429 202.977,78.312 204.326,77.057 C202.973,75.737 201.815,74.607 200.631,73.452 C201.218,72.884 201.788,72.332 202.442,71.699 C203.539,72.883 204.652,74.085 205.826,75.353 C207.140,74.008 208.286,72.837 209.469,71.627 C210.098,72.303 210.637,72.883 211.152,73.436 C210.045,74.535 208.885,75.688 207.683,76.882 C209.008,78.178 210.179,79.323 211.389,80.506 C210.673,81.168 210.077,81.718 209.477,82.272 Z"/>
</svg>